<svg width="38" height="38" fill="none" xmlns="http://www.w3.org/2000/svg"><path d="M4.75 19H19v2.375H4.75V19zm-2.375-5.938H14.25v2.376H2.375v-2.376z" fill="#222"/><path d="m35.529 19.72-3.563-8.313a1.187 1.187 0 0 0-1.09-.72h-3.563V8.313a1.187 1.187 0 0 0-1.188-1.188h-19V9.5h17.813v14.91a4.742 4.742 0 0 0-2.207 2.902H15.27a4.75 4.75 0 1 0 0 2.375h7.462a4.727 4.727 0 0 0 9.163 0h2.544a1.187 1.187 0 0 0 1.187-1.187v-8.313c0-.16-.032-.32-.096-.467zM10.688 30.875a2.375 2.375 0 1 1 0-4.75 2.375 2.375 0 0 1 0 4.75zm16.625-17.813h2.779L32.638 19h-5.325v-5.938zm0 17.813a2.375 2.375 0 1 1 0-4.75 2.375 2.375 0 0 1 0 4.75zm5.937-3.563h-1.356a4.744 4.744 0 0 0-4.581-3.562v-2.375h5.937v5.938z" fill="#222"/></svg>