<svg width="92" height="92" fill="none" xmlns="http://www.w3.org/2000/svg"><rect width="92" height="92" rx="10" fill="#EDEDED"/><path d="M12.97 66.662c-.145-1.746-.954-3.081-1.586-4.679-1.108-2.798-1.809-5.967-2.209-8.941-.813-6.05-.702-12.664 5.333-15.72 3.697-1.87 8.09-1.33 11.96-.415 4.373 1.033 9.304 2.61 13.25 5.345m0 0c2.2 1.525 4.094 3.41 5.415 5.76 2.815 5.012 3.244 12.403-.425 17.085-2.278 2.906-3.69-.206-4.516-2.514-2.36-6.596-2.62-13.833-.475-20.33zm0 0a26.714 26.714 0 0 1 5.12-9.092c3.665-4.257 9.946-6.373 15.247-7.36 5.082-.945 10.358.27 14.478 3.48.357.279.697.575 1.02.889m0 0c2.921 2.842 4.379 7.047 3.839 11.183-.262 2.004-1.313 5.221-2.748 6.728-3.63 3.807-6.056-1.656-6.642-4.58-.685-3.417-.68-6.994 1.194-10.073 1.053-1.732 2.614-2.716 4.356-3.258zm0 0c1.612-.501 3.381-.623 5.05-.605.766.008 2.715-.068 2.715 1.132m-49.184.765c.25-.515.623-.992.9-1.498s.46-1.041.674-1.564c.014-.035.193-.452.197-.445.096.23.062.524.107.763.17.918.081 1.795.11 2.711.008.26.368.093.57.052.581-.117 1.197-.248 1.798-.282.27-.016-.428.307-.462.323-.417.203-.802.43-1.195.659-.071.042-.392.134-.414.2-.041.121.01.251.024.376.07.644.12 1.289.19 1.932.057.517.172 1.027.231 1.542.012.1-.17-.274-.183-.296-.356-.665-.777-1.314-1.084-1.995-.128-.286-.051-.488-.452-.392-.708.168-1.43.285-2.144.433-.78.162-1.517.426-2.288.612-.07.017-1.472.313-1.46.255.028-.14.4-.326.517-.411 1.031-.756 2.29-1.17 3.487-1.726.43-.2-.215-.44-.449-.569-.588-.322-1.496-.7-1.86-1.215-.08-.111.595.01.617.014.578.086 1.15.188 1.73.268.289.04.564.035.776.204m29.723 22.76c.295-.5.709-.956 1.029-1.446.32-.49.548-1.013.807-1.524.017-.033.233-.44.235-.432.076.233.017.526.04.767.091.925-.074 1.795-.124 2.71-.015.26.36.113.563.084.591-.085 1.217-.183 1.82-.184.27 0-.455.283-.49.298-.433.179-.837.385-1.249.591-.075.038-.403.112-.43.178-.052.118-.012.25-.01.376.014.646.008 1.292.023 1.938.012.518.083 1.033.097 1.55.002.1-.147-.282-.157-.305-.298-.683-.662-1.353-.908-2.05-.104-.292-.01-.49-.418-.416-.72.13-1.45.207-2.176.315-.793.119-1.55.342-2.336.485-.07.013-1.496.232-1.48.175.041-.138.43-.304.553-.382 1.094-.697 2.385-1.04 3.628-1.531.446-.176-.176-.45-.398-.591-.56-.354-1.432-.781-1.751-1.315-.07-.116.593.043.615.047.569.118 1.131.251 1.702.364.285.055.56.064.758.245" stroke="#222" stroke-linecap="round"/></svg>