<svg xmlns="http://www.w3.org/2000/svg" width="157" height="25" fill="none"><path fill="#222" d="M2.654 23.756a5.98 5.98 0 0 1-2.176-.384v-4.096c.085.043.202.075.352.096.17.021.31.032.416.032.81 0 1.472-.267 1.984-.8.533-.533.938-1.365 1.216-2.496.298-1.13.501-2.592.608-4.384.106-1.792.16-3.947.16-6.464V.652h16.448V23.5H16.67V4.876H9.982c-.064 2.645-.16 5.12-.288 7.424-.107 2.304-.384 4.31-.832 6.016-.448 1.685-1.152 3.019-2.112 4-.96.96-2.326 1.44-4.096 1.44Zm33.669.256c-1.77 0-3.35-.299-4.736-.896-1.387-.619-2.56-1.461-3.52-2.528s-1.696-2.315-2.208-3.744c-.512-1.45-.768-3.008-.768-4.672 0-1.685.256-3.264.768-4.736s1.248-2.752 2.208-3.84c.96-1.088 2.133-1.941 3.52-2.56s2.965-.928 4.736-.928c1.75 0 3.317.31 4.704.928 1.408.619 2.592 1.472 3.552 2.56s1.696 2.368 2.208 3.84c.512 1.472.768 3.05.768 4.736 0 1.664-.256 3.221-.768 4.672-.512 1.43-1.248 2.677-2.208 3.744-.96 1.067-2.144 1.91-3.552 2.528-1.387.597-2.955.896-4.704.896Zm0-4.192c1.13 0 2.09-.213 2.88-.64a5.643 5.643 0 0 0 1.92-1.76 7.327 7.327 0 0 0 1.056-2.432c.235-.917.352-1.856.352-2.816a11.96 11.96 0 0 0-.352-2.912c-.213-.939-.565-1.77-1.056-2.496a5.249 5.249 0 0 0-1.92-1.76c-.79-.448-1.75-.672-2.88-.672s-2.09.224-2.88.672a5.249 5.249 0 0 0-1.92 1.76 7.78 7.78 0 0 0-1.088 2.496c-.213.939-.32 1.91-.32 2.912 0 .96.107 1.899.32 2.816a7.854 7.854 0 0 0 1.088 2.432 5.643 5.643 0 0 0 1.92 1.76c.79.427 1.75.64 2.88.64ZM51.149.652h15.872v4.224H56.173V23.5H51.15V.652Zm28.455 23.36c-1.77 0-3.35-.299-4.736-.896-1.386-.619-2.56-1.461-3.52-2.528s-1.696-2.315-2.208-3.744c-.512-1.45-.768-3.008-.768-4.672 0-1.685.256-3.264.768-4.736s1.248-2.752 2.208-3.84c.96-1.088 2.134-1.941 3.52-2.56 1.387-.619 2.966-.928 4.736-.928 1.75 0 3.318.31 4.704.928 1.408.619 2.592 1.472 3.552 2.56s1.696 2.368 2.208 3.84c.512 1.472.768 3.05.768 4.736 0 1.664-.256 3.221-.768 4.672-.512 1.43-1.248 2.677-2.208 3.744-.96 1.067-2.144 1.91-3.552 2.528-1.386.597-2.954.896-4.704.896Zm0-4.192c1.13 0 2.09-.213 2.88-.64a5.643 5.643 0 0 0 1.92-1.76 7.33 7.33 0 0 0 1.056-2.432 11.32 11.32 0 0 0 .352-2.816c0-1.003-.117-1.973-.352-2.912-.213-.939-.565-1.77-1.056-2.496a5.249 5.249 0 0 0-1.92-1.76c-.79-.448-1.75-.672-2.88-.672s-2.09.224-2.88.672a5.247 5.247 0 0 0-1.92 1.76 7.777 7.777 0 0 0-1.088 2.496c-.213.939-.32 1.91-.32 2.912 0 .96.107 1.899.32 2.816a7.852 7.852 0 0 0 1.088 2.432 5.641 5.641 0 0 0 1.92 1.76c.79.427 1.75.64 2.88.64ZM99.326 4.876H92.48V.652h18.72v4.224h-6.848V23.5h-5.025V4.876ZM113.834.652h4.992v15.84h.096l8.704-15.84h5.632V23.5h-4.992V7.628h-.096L119.465 23.5h-5.632V.652Zm23.844 0h19.008V23.5h-5.024V4.876h-8.96V23.5h-5.024V.652Z"/></svg>