<svg xmlns="http://www.w3.org/2000/svg" width="24" height="24" fill="none"><g clip-path="url(#a)"><path fill="#fff" d="M15.476 13.387c.76 0 1.428-.415 1.772-1.042l3.623-6.572a1.009 1.009 0 0 0-.88-1.498H5.01L4.06 2.25H.75v2.025h2.024l3.644 7.685-1.366 2.47c-.74 1.357.232 3.008 1.77 3.008h12.146v-2.025H6.823l1.113-2.026h7.54ZM5.973 6.3H18.27l-2.794 5.063H8.371L5.973 6.3Zm.85 12.15a2.022 2.022 0 0 0-2.014 2.025c0 1.114.9 2.025 2.014 2.025a2.03 2.03 0 0 0 2.024-2.025 2.03 2.03 0 0 0-2.024-2.025Zm10.121 0a2.022 2.022 0 0 0-2.014 2.025c0 1.114.9 2.025 2.014 2.025a2.03 2.03 0 0 0 2.024-2.025 2.03 2.03 0 0 0-2.024-2.025Z"/></g><defs><clipPath id="a"><path fill="#fff" d="M0 0h24v24H0z"/></clipPath></defs></svg>