<svg xmlns="http://www.w3.org/2000/svg" width="243" height="149" fill="none"><path stroke="#222" stroke-linecap="round" stroke-width="2" d="M14.433 148c-.472-6.235-3.086-11.001-5.131-16.705-3.583-9.991-5.848-21.303-7.141-31.924-2.63-21.596-2.272-45.21 17.244-56.119 11.954-6.681 26.16-4.75 38.669-1.486 14.143 3.69 30.086 9.322 42.845 19.085m0 0c7.116 5.444 13.241 12.174 17.511 20.567 9.103 17.892 10.489 44.278-1.375 60.994-7.364 10.376-11.927-.734-14.6-8.977-7.634-23.548-8.473-49.385-1.536-72.584Zm0 0c3.499-11.703 8.977-22.734 16.559-32.46 11.849-15.201 32.161-22.755 49.301-26.277 16.432-3.376 33.494.963 46.815 12.425a41.58 41.58 0 0 1 3.296 3.172m0 0c9.447 10.146 14.16 25.161 12.414 39.928-.845 7.154-4.244 18.64-8.886 24.017-11.738 13.594-19.582-5.91-21.477-16.348-2.215-12.202-2.196-24.973 3.862-35.967 3.406-6.18 8.451-9.696 14.087-11.63Zm0 0c5.214-1.79 10.934-2.224 16.329-2.161 2.479.028 8.781-.24 8.781 4.042M82.96 22.324c.811-1.838 2.018-3.54 2.914-5.35.895-1.804 1.483-3.715 2.177-5.583.046-.123.626-1.614.636-1.588.31.818.203 1.871.346 2.724.553 3.277.264 6.409.358 9.68.026.925 1.19.33 1.841.186 1.882-.418 3.874-.888 5.816-1.01.87-.054-1.385 1.097-1.496 1.157-1.346.721-2.591 1.536-3.862 2.35-.232.15-1.267.479-1.34.716-.132.433.035.896.079 1.342.224 2.298.384 4.6.614 6.897.184 1.845.557 3.666.747 5.506.037.356-.552-.978-.591-1.058-1.154-2.375-2.515-4.69-3.505-7.122-.416-1.022-.168-1.742-1.463-1.401-2.288.602-4.621 1.02-6.931 1.548-2.525.577-4.908 1.519-7.401 2.184-.222.06-4.76 1.116-4.722.911.092-.5 1.298-1.164 1.674-1.47 3.335-2.696 7.403-4.172 11.275-6.161 1.39-.715-.694-1.57-1.452-2.028-1.901-1.152-4.837-2.5-6.016-4.34-.255-.398 1.926.037 1.998.049 1.867.307 3.72.672 5.592.96.935.143 1.824.121 2.512.725m96.109 81.257c.953-1.784 2.291-3.41 3.327-5.16 1.034-1.747 1.771-3.618 2.61-5.44.055-.12.751-1.572.759-1.544.246.834.055 1.878.131 2.738.294 3.303-.24 6.409-.403 9.678-.047.924 1.162.401 1.822.297 1.91-.303 3.934-.651 5.882-.655.872-.002-1.468 1.01-1.583 1.063-1.4.638-2.706 1.375-4.038 2.112-.243.134-1.302.4-1.393.632-.166.424-.036.896-.027 1.344.043 2.306.022 4.612.071 6.918.038 1.851.268 3.69.313 5.538.009.357-.474-1.01-.507-1.092-.964-2.439-2.14-4.83-2.937-7.317-.335-1.045-.03-1.748-1.349-1.486-2.331.463-4.69.737-7.037 1.125-2.564.423-5.015 1.219-7.555 1.732-.226.045-4.835.825-4.782.623.131-.494 1.386-1.084 1.786-1.365 3.539-2.489 7.712-3.715 11.731-5.466 1.444-.628-.568-1.607-1.288-2.11-1.807-1.264-4.63-2.787-5.662-4.694-.223-.412 1.919.153 1.99.17 1.839.42 3.659.896 5.504 1.296.921.2 1.81.231 2.448.875"/></svg>