<svg width="32" height="32" viewBox="0 0 32 32" fill="none" xmlns="http://www.w3.org/2000/svg">
<g clip-path="url(#clip0_168_192)">
<path d="M20.7335 17.3337C21.7335 17.3337 22.6135 16.787 23.0668 15.9603L27.8402 7.30699C28.3335 6.42699 27.6935 5.33366 26.6802 5.33366H6.94683L5.6935 2.66699H1.3335V5.33366H4.00016L8.80016 15.4537L7.00016 18.707C6.02683 20.4937 7.30683 22.667 9.3335 22.667H25.3335V20.0003H9.3335L10.8002 17.3337H20.7335ZM8.2135 8.00033H24.4135L20.7335 14.667H11.3735L8.2135 8.00033ZM9.3335 24.0003C7.86683 24.0003 6.68016 25.2003 6.68016 26.667C6.68016 28.1337 7.86683 29.3337 9.3335 29.3337C10.8002 29.3337 12.0002 28.1337 12.0002 26.667C12.0002 25.2003 10.8002 24.0003 9.3335 24.0003ZM22.6668 24.0003C21.2002 24.0003 20.0135 25.2003 20.0135 26.667C20.0135 28.1337 21.2002 29.3337 22.6668 29.3337C24.1335 29.3337 25.3335 28.1337 25.3335 26.667C25.3335 25.2003 24.1335 24.0003 22.6668 24.0003Z" fill="#222222"/>
</g>
<defs>
<clipPath id="clip0_168_192">
<rect width="32" height="32" fill="white"/>
</clipPath>
</defs>
</svg>
