<svg width="39" height="39" viewBox="0 0 39 39" fill="none" xmlns="http://www.w3.org/2000/svg">
<path d="M24.9599 6.33337C25.8419 6.3334 26.7065 6.579 27.4568 7.04266C28.2071 7.50631 28.8134 8.16971 29.208 8.95854L31.3977 13.3365C31.7841 13.1781 32.1688 13.0182 32.5425 12.833C32.9183 12.6452 33.3533 12.6145 33.7518 12.7476C34.1503 12.8806 34.4796 13.1665 34.6673 13.5423C34.855 13.9181 34.8857 14.3531 34.7527 14.7516C34.6197 15.1501 34.3338 15.4794 33.958 15.6671C33.1758 16.0566 32.818 16.177 32.818 16.177L34.3317 19.2059C34.6626 19.8661 34.8336 20.5929 34.8336 21.3307V25.3334C34.8346 26.0018 34.694 26.6629 34.4211 27.2731C34.1482 27.8833 33.7491 28.4288 33.2502 28.8737V30.875C33.2502 31.5049 33 32.109 32.5546 32.5544C32.1092 32.9998 31.5051 33.25 30.8752 33.25C30.2453 33.25 29.6413 32.9998 29.1959 32.5544C28.7505 32.109 28.5002 31.5049 28.5002 30.875V30.0834H9.50024V30.875C9.50024 31.5049 9.25002 32.109 8.80462 32.5544C8.35922 32.9998 7.75513 33.25 7.12524 33.25C6.49535 33.25 5.89126 32.9998 5.44586 32.5544C5.00046 32.109 4.75024 31.5049 4.75024 30.875V28.8737C3.77807 28.0029 3.1669 26.7394 3.1669 25.3334V21.3307C3.1672 20.5936 3.33904 19.8667 3.66882 19.2075L5.18249 16.177C4.79899 16.0179 4.4199 15.8484 4.04565 15.6687C3.85903 15.5761 3.6925 15.4476 3.55564 15.2905C3.41877 15.1335 3.31424 14.9509 3.24805 14.7534C3.18186 14.5558 3.15531 14.3472 3.16991 14.1394C3.18451 13.9315 3.23999 13.7286 3.33315 13.5423C3.52501 13.1684 3.85619 12.885 4.25521 12.7531C4.65423 12.6213 5.08908 12.6517 5.4659 12.8377C5.83799 13.0182 6.21957 13.1813 6.60274 13.3365L8.79249 8.95854C9.18703 8.16971 9.79342 7.50631 10.5437 7.04266C11.294 6.579 12.1586 6.3334 13.0406 6.33337H24.9599ZM29.8207 17.2647C27.1291 18.115 23.299 19 19.0002 19C14.7015 19 10.8714 18.1134 8.17974 17.2647L6.5014 20.6214C6.39105 20.8415 6.33359 21.0844 6.33357 21.3307V25.3334C6.33357 25.7533 6.50039 26.156 6.79732 26.453C7.09425 26.7499 7.49698 26.9167 7.9169 26.9167H30.0836C30.5035 26.9167 30.9062 26.7499 31.2032 26.453C31.5001 26.156 31.6669 25.7533 31.6669 25.3334V21.3307C31.6666 21.085 31.6092 20.8427 31.4991 20.623L29.8207 17.2647ZM11.8752 20.5834C12.5051 20.5834 13.1092 20.8336 13.5546 21.279C14 21.7244 14.2502 22.3285 14.2502 22.9584C14.2502 23.5883 14 24.1924 13.5546 24.6378C13.1092 25.0832 12.5051 25.3334 11.8752 25.3334C11.2453 25.3334 10.6413 25.0832 10.1959 24.6378C9.75046 24.1924 9.50024 23.5883 9.50024 22.9584C9.50024 22.3285 9.75046 21.7244 10.1959 21.279C10.6413 20.8336 11.2453 20.5834 11.8752 20.5834ZM26.1252 20.5834C26.7551 20.5834 27.3592 20.8336 27.8046 21.279C28.25 21.7244 28.5002 22.3285 28.5002 22.9584C28.5002 23.5883 28.25 24.1924 27.8046 24.6378C27.3592 25.0832 26.7551 25.3334 26.1252 25.3334C25.4953 25.3334 24.8913 25.0832 24.4459 24.6378C24.0005 24.1924 23.7502 23.5883 23.7502 22.9584C23.7502 22.3285 24.0005 21.7244 24.4459 21.279C24.8913 20.8336 25.4953 20.5834 26.1252 20.5834ZM24.9599 9.50004H13.0406C12.7466 9.5002 12.4585 9.58219 12.2085 9.73683C11.9585 9.89147 11.7565 10.1127 11.6251 10.3756L9.61424 14.3925C12.0652 15.1288 15.3681 15.8334 19.0002 15.8334C22.6324 15.8334 25.9352 15.1288 28.3847 14.3925L26.3754 10.3756C26.244 10.1127 26.042 9.89147 25.792 9.73683C25.542 9.58219 25.2539 9.5002 24.9599 9.50004Z" fill="#222222"/>
</svg>
