<svg width="24" height="24" viewBox="0 0 24 24" fill="none" xmlns="http://www.w3.org/2000/svg">
<g id="carbon:delivery" clip-path="url(#clip0_912_377)">
<path id="Vector" d="M1.71429 11.1429H12V12.6667H1.71429V11.1429ZM0 7.33337H8.57143V8.85718H0V7.33337Z" fill="white"/>
<path id="Vector_2" d="M23.9309 12.3315L21.3724 6.39271C21.3068 6.24007 21.1975 6.10997 21.0581 6.01857C20.9188 5.92717 20.7556 5.87849 20.5887 5.87858H18.0302V4.18178C18.0302 3.95677 17.9404 3.74097 17.7804 3.58187C17.6205 3.42276 17.4036 3.33337 17.1774 3.33337H3.53223V5.03018H16.3246V15.6827C15.936 15.9072 15.5959 16.206 15.3239 16.5619C15.052 16.9178 14.8535 17.3237 14.74 17.7562H9.38088C9.17331 16.9565 8.67967 16.2595 7.99248 15.7959C7.30529 15.3323 6.47175 15.134 5.64808 15.2381C4.82441 15.3421 4.06717 15.7415 3.51831 16.3613C2.96944 16.981 2.66663 17.7786 2.66663 18.6046C2.66663 19.4306 2.96944 20.2282 3.51831 20.848C4.06717 21.4678 4.82441 21.8671 5.64808 21.9712C6.47175 22.0753 7.30529 21.8769 7.99248 21.4134C8.67967 20.9498 9.17331 20.2528 9.38088 19.453H14.74C14.9255 20.1812 15.3498 20.827 15.9457 21.2883C16.5416 21.7496 17.2751 22 18.0302 22C18.7853 22 19.5188 21.7496 20.1147 21.2883C20.7106 20.827 21.1349 20.1812 21.3204 19.453H23.1471C23.3733 19.453 23.5902 19.3636 23.7502 19.2045C23.9101 19.0454 24 18.8296 24 18.6046V12.6658C24 12.5509 23.9765 12.4371 23.9309 12.3315ZM6.09069 20.3014C5.75335 20.3014 5.42358 20.2019 5.14309 20.0155C4.8626 19.829 4.64398 19.564 4.51488 19.254C4.38579 18.9439 4.35201 18.6027 4.41782 18.2736C4.48363 17.9444 4.64608 17.6421 4.88462 17.4048C5.12316 17.1675 5.42708 17.0059 5.75794 16.9404C6.0888 16.875 6.43175 16.9086 6.74341 17.037C7.05508 17.1654 7.32147 17.3829 7.50888 17.6619C7.6963 17.941 7.79634 18.269 7.79634 18.6046C7.79589 19.0545 7.61604 19.4858 7.29627 19.804C6.97649 20.1221 6.54292 20.301 6.09069 20.3014ZM18.0302 7.57539H20.0258L21.8543 11.8174H18.0302V7.57539ZM18.0302 20.3014C17.6929 20.3014 17.3631 20.2019 17.0826 20.0155C16.8021 19.829 16.5835 19.564 16.4544 19.254C16.3253 18.9439 16.2915 18.6027 16.3573 18.2736C16.4231 17.9444 16.5856 17.6421 16.8241 17.4048C17.0627 17.1675 17.3666 17.0059 17.6974 16.9404C18.0283 16.875 18.3713 16.9086 18.6829 17.037C18.9946 17.1654 19.261 17.3829 19.4484 17.6619C19.6358 17.941 19.7358 18.269 19.7358 18.6046C19.7354 19.0545 19.5555 19.4858 19.2358 19.804C18.916 20.1221 18.4824 20.301 18.0302 20.3014ZM22.2943 17.7562H21.3204C21.1325 17.0295 20.7076 16.3854 20.1121 15.9247C19.5167 15.4641 18.7845 15.2131 18.0302 15.211V13.5142H22.2943V17.7562Z" fill="white"/>
</g>
<defs>
<clipPath id="clip0_912_377">
<rect width="24" height="24" fill="white"/>
</clipPath>
</defs>
</svg>
