<svg width="24" height="25" viewBox="0 0 24 25" fill="none" xmlns="http://www.w3.org/2000/svg">
<g id="edit">
<path fill-rule="evenodd" clip-rule="evenodd" d="M17.8423 6.24561C18.1015 6.37421 18.3328 6.55261 18.5231 6.77062C18.9071 7.21083 19.1007 7.78557 19.0611 8.36844C19.0214 8.95131 18.7519 9.49459 18.3118 9.87878L9.48362 17.5833C9.22063 17.8128 8.90294 17.9707 8.56118 18.0417L5.4143 18.6967C5.34134 18.7118 5.26568 18.7072 5.19506 18.6835C5.12444 18.6597 5.06141 18.6176 5.01242 18.5615C4.96343 18.5054 4.93024 18.4372 4.91626 18.364C4.90228 18.2909 4.90801 18.2153 4.93286 18.145L6.00758 15.1152C6.12373 14.7861 6.32337 14.4931 6.58606 14.2638L15.4143 6.55934C15.6323 6.36908 15.8856 6.22362 16.1598 6.13126C16.434 6.03891 16.7237 6.00147 17.0124 6.02109C17.3011 6.04071 17.5831 6.117 17.8423 6.24561ZM16.9556 6.85948C16.595 6.83492 16.2395 6.95461 15.9671 7.19222L15.0477 7.99404L16.8396 10.0477L17.759 9.24591C18.0313 9.0083 18.1981 8.67225 18.2227 8.31166C18.2472 7.95108 18.1275 7.59551 17.8899 7.32317C17.6523 7.05083 17.3162 6.88404 16.9556 6.85948ZM16.2073 10.6006L14.4149 8.5469L7.13833 14.8972C6.98426 15.0318 6.86738 15.2037 6.79888 15.3964L5.97423 17.7216L8.39018 17.2192C8.59046 17.1775 8.77663 17.0849 8.93075 16.9504L16.2073 10.6006Z" fill="#4350D6"/>
<path fill-rule="evenodd" clip-rule="evenodd" d="M12 0.5C5.37258 0.5 0 5.87258 0 12.5C0 19.1274 5.37258 24.5 12 24.5C18.6274 24.5 24 19.1274 24 12.5C24 5.87258 18.6274 0.5 12 0.5ZM1.24138 12.5C1.24138 6.55818 6.05818 1.74138 12 1.74138C17.9418 1.74138 22.7586 6.55818 22.7586 12.5C22.7586 18.4418 17.9418 23.2586 12 23.2586C6.05818 23.2586 1.24138 18.4418 1.24138 12.5Z" fill="#4350D6"/>
</g>
</svg>
