<svg width="24" height="21" viewBox="0 0 24 21" fill="none" xmlns="http://www.w3.org/2000/svg">
<path d="M21.3434 15.9865C21.258 16.0389 21.1639 16.0726 21.0663 16.0858C20.9688 16.099 20.8698 16.0914 20.775 16.0634C20.6802 16.0353 20.5914 15.9875 20.5138 15.9225C20.4362 15.8576 20.3713 15.7768 20.3228 15.6849L18.5469 12.3469C17.5145 13.0978 16.3756 13.6635 15.1746 14.0219L15.7233 17.563C15.7395 17.6672 15.7364 17.7739 15.7143 17.8768C15.6921 17.9798 15.6513 18.0771 15.5942 18.1631C15.5371 18.2491 15.4648 18.3221 15.3814 18.378C15.298 18.4339 15.2052 18.4716 15.1083 18.4889C15.0684 18.496 15.0281 18.4997 14.9877 18.5C14.8108 18.4997 14.6397 18.432 14.5049 18.3088C14.3701 18.1857 14.2802 18.0151 14.2512 17.8274L13.7119 14.3507C12.5746 14.5209 11.4208 14.5209 10.2835 14.3507L9.74423 17.8274C9.71521 18.0154 9.62504 18.1863 9.48981 18.3095C9.35457 18.4327 9.18305 18.5002 9.00584 18.5C8.96451 18.4998 8.92326 18.4961 8.88247 18.4889C8.78554 18.4716 8.69274 18.4339 8.60936 18.378C8.52599 18.3221 8.45367 18.2491 8.39656 18.1631C8.33944 18.0771 8.29864 17.9798 8.27649 17.8768C8.25434 17.7739 8.25127 17.6672 8.26745 17.563L8.81891 14.0219C7.61845 13.6624 6.48019 13.0957 5.4485 12.3439L3.67824 15.6849C3.62914 15.7769 3.56368 15.8576 3.48558 15.9224C3.40748 15.9872 3.31828 16.0349 3.22307 16.0626C3.12786 16.0903 3.0285 16.0976 2.93067 16.084C2.83285 16.0704 2.73846 16.0363 2.65291 15.9835C2.56736 15.9306 2.49232 15.8602 2.43207 15.7762C2.37182 15.6922 2.32754 15.5963 2.30176 15.4938C2.27598 15.3914 2.26921 15.2845 2.28183 15.1793C2.29445 15.0741 2.32622 14.9726 2.37531 14.8805L4.24465 11.3616C3.58804 10.7514 2.98427 10.0784 2.44074 9.35077C2.37296 9.26937 2.32131 9.17395 2.28895 9.07036C2.25659 8.96676 2.24419 8.85716 2.25252 8.74824C2.26084 8.63932 2.28972 8.53336 2.33738 8.43685C2.38504 8.34033 2.45048 8.25527 2.52972 8.18687C2.60895 8.11846 2.70032 8.06814 2.79823 8.03898C2.89615 8.00982 2.99856 8.00244 3.09922 8.01727C3.19987 8.0321 3.29667 8.06884 3.38369 8.12525C3.4707 8.18166 3.54612 8.25656 3.60534 8.34537C5.15688 10.4105 7.87116 12.8697 11.9968 12.8697C16.1224 12.8697 18.8367 10.4075 20.3882 8.34537C20.4468 8.25474 20.522 8.17804 20.6093 8.12004C20.6966 8.06205 20.794 8.02399 20.8955 8.00824C20.9971 7.99248 21.1005 7.99938 21.1995 8.02849C21.2985 8.05759 21.3908 8.1083 21.4707 8.17744C21.5507 8.24658 21.6166 8.33267 21.6643 8.43038C21.712 8.52808 21.7405 8.63529 21.748 8.74535C21.7555 8.85541 21.7419 8.96595 21.708 9.07011C21.6741 9.17426 21.6206 9.2698 21.5509 9.35077C21.0074 10.0784 20.4036 10.7514 19.747 11.3616L21.6164 14.8805C21.6665 14.9723 21.6993 15.0738 21.7127 15.1792C21.7262 15.2847 21.72 15.3919 21.6946 15.4948C21.6693 15.5977 21.6251 15.6941 21.5649 15.7785C21.5046 15.8629 21.4293 15.9336 21.3434 15.9865Z" fill="#272A31"/>
</svg>
