<svg width="38" height="38" viewBox="0 0 38 38" fill="none" xmlns="http://www.w3.org/2000/svg">
<path d="M19.0003 3.16345C27.7467 3.16345 34.8368 10.2536 34.8368 19C34.8368 19.619 34.8004 20.2302 34.7307 20.8319C34.0697 20.1541 33.3028 19.5884 32.4602 19.1567V19C32.4602 17.909 32.332 16.8482 32.0866 15.8333H26.7697C26.8489 16.6535 26.8964 17.4958 26.9122 18.3524C26.0879 18.5042 25.29 18.7752 24.5436 19.1567V19C24.5436 17.9059 24.4866 16.8466 24.3789 15.8317H13.6217C13.3432 18.4685 13.4151 21.1305 13.8355 23.7484H20.3857C20.0887 24.5097 19.9011 25.3094 19.8284 26.1234H14.3453C15.3777 29.9471 17.1732 32.4599 19.0003 32.4599C19.7192 32.4599 20.4348 32.0688 21.0998 31.361C21.6714 32.3364 22.4172 33.2959 23.3149 34.2395C21.9422 34.6275 20.495 34.8349 18.9987 34.8349C10.254 34.8349 3.16699 27.7447 3.16699 19C3.16541 10.2536 10.254 3.16345 19.0003 3.16345ZM11.888 26.125H7.57816C9.10712 28.5705 11.3786 30.4625 14.0603 31.5241C13.2338 30.2258 12.5514 28.6013 12.0495 26.7504L11.888 26.125ZM11.2325 15.8317H5.91566L5.90774 15.8586C5.66313 16.8878 5.54037 17.9421 5.54199 19C5.53977 20.6223 5.8316 22.2317 6.40333 23.75H11.4272C11.1954 22.1773 11.0806 20.5896 11.0837 19C11.0837 17.917 11.1327 16.8561 11.2325 15.8317ZM14.0619 6.4742L14.0255 6.48687C10.7842 7.78084 8.16953 10.2792 6.72949 13.4583H11.5555C12.0527 10.6843 12.9172 8.26654 14.0619 6.4742ZM19.0019 5.53845L18.8167 5.54637C16.8153 5.73162 14.8789 8.89987 13.9812 13.4583H24.0227C23.1265 8.91412 21.1996 5.74904 19.2014 5.54954L19.0003 5.53845H19.0019ZM23.9419 6.47262L24.1097 6.7497C25.1706 8.51037 25.9733 10.822 26.4452 13.4583H31.2712C29.8966 10.4248 27.45 8.00581 24.4011 6.66579L23.9419 6.4742V6.47262ZM35.6253 26.9166C35.6253 25.027 34.8747 23.2147 33.5385 21.8785C32.2023 20.5423 30.39 19.7916 28.5003 19.7916C26.6107 19.7916 24.7984 20.5423 23.4622 21.8785C22.126 23.2147 21.3753 25.027 21.3753 26.9166C21.3753 29.8664 23.6221 32.957 28.0253 36.2583C28.1624 36.3611 28.329 36.4166 28.5003 36.4166C28.6716 36.4166 28.8383 36.3611 28.9753 36.2583C33.377 32.957 35.6253 29.8664 35.6253 26.9166ZM26.1253 26.9166C26.1171 26.5997 26.1725 26.2843 26.2881 25.9891C26.4038 25.6939 26.5773 25.4248 26.7986 25.1977C27.0199 24.9707 27.2844 24.7902 27.5765 24.667C27.8686 24.5438 28.1825 24.4803 28.4995 24.4803C28.8166 24.4803 29.1304 24.5438 29.4226 24.667C29.7147 24.7902 29.9792 24.9707 30.2005 25.1977C30.4217 25.4248 30.5953 25.6939 30.7109 25.9891C30.8266 26.2843 30.8819 26.5997 30.8737 26.9166C30.8737 27.5465 30.6235 28.1506 30.1781 28.596C29.7327 29.0414 29.1286 29.2916 28.4987 29.2916C27.8689 29.2916 27.2648 29.0414 26.8194 28.596C26.374 28.1506 26.1253 27.5465 26.1253 26.9166Z" fill="#222222"/>
</svg>
