<svg width="126" height="40" viewBox="0 0 126 40" fill="none" xmlns="http://www.w3.org/2000/svg">
<g id="logo">
<g id="logo_2">
<path d="M1.03255 9.40128C1.60027 6.18463 3.05169 3.81133 5.38684 2.2868C7.72198 0.762271 10.6034 0 14.0365 0C17.3678 0 19.778 0.573052 21.2669 1.72456C22.7558 2.87607 23.4842 4.68172 23.4521 7.14691L23.3664 7.85512H16.9876L17.0733 7.09285C17.0251 6.26571 16.7037 5.5521 16.1146 4.95202C15.5254 4.35194 14.5721 4.0546 13.2599 4.0546C11.8138 4.0546 10.6195 4.51953 9.68222 5.44398C8.74495 6.36843 8.15045 7.48209 7.89872 8.78497L7.5988 10.396C7.32029 12.153 7.52917 13.4126 8.22008 14.1695C8.91098 14.9264 9.99286 15.3102 11.4657 15.3102C13.0992 15.3102 14.2561 14.9966 14.9416 14.3749C15.6272 13.7532 16.061 13.018 16.2485 12.1854L16.452 11.461H22.8147L22.6273 12.2449C22.1185 14.6452 20.8598 16.413 18.8514 17.5591C16.843 18.7052 14.1329 19.2783 10.7159 19.2783C7.15961 19.2783 4.50313 18.4998 2.74641 16.9482C0.9897 15.3967 0.389843 13.018 0.952206 9.81213L1.03255 9.40128Z" fill="#4350D6"/>
<path d="M21.9471 21.3218C22.3488 21.4245 22.7826 21.511 23.2486 21.5813C23.7145 21.6516 24.1269 21.6894 24.4965 21.6894C25.423 21.6732 26.1835 21.6029 26.7727 21.484C27.3618 21.365 27.9778 20.8082 28.6097 19.8135L28.4973 18.9755L24.0037 5.55751H30.1522L32.0482 12.3314C32.1446 12.672 32.3695 13.3369 32.3695 13.3369L32.7177 13.3423L32.798 13.1856C32.798 13.1856 33.2158 12.472 33.4032 12.2287L37.5379 5.56292H43.1615L34.0995 19.8675C32.6159 21.9111 31.1163 23.3383 29.5952 24.1438C28.0742 24.9493 26.4674 25.3548 24.7857 25.3548C24.143 25.3548 23.511 25.3224 22.8951 25.2575C22.2791 25.1926 21.7114 25.1007 21.1919 24.9709L21.9471 21.3218Z" fill="#4350D6"/>
<path fill-rule="evenodd" clip-rule="evenodd" d="M45.2771 0.356807H51.3506L50.4669 5.11961H55.3889C57.9222 5.08718 59.7004 5.68185 60.718 6.89824C61.7356 8.11462 62.0569 9.81215 61.6874 11.9854C61.2964 14.2398 60.3645 15.9589 58.8916 17.1375C57.4188 18.316 55.48 18.9053 53.0645 18.9053H41.9725L45.2771 0.356807ZM48.7102 14.7263L49.8349 9.08771H50.1738L53.4019 9.0823C54.4088 9.0823 55.0783 9.30938 55.4103 9.7743C55.7424 10.2392 55.8227 10.942 55.646 11.8989C55.4478 12.899 55.089 13.6181 54.5695 14.0614C54.05 14.5047 53.2894 14.7263 52.2825 14.7263H48.7102Z" fill="#4350D6"/>
<path fill-rule="evenodd" clip-rule="evenodd" d="M68.7089 12.5476L68.6982 12.5963C68.6392 13.6126 68.9713 13.7911 69.4801 14.256C69.9889 14.7209 70.7923 14.9534 71.8902 14.9534C72.8543 14.9534 73.6362 14.8128 74.2415 14.5371C74.8467 14.2614 75.3608 13.8721 75.7786 13.3694L80.4489 14.9642C79.6776 16.2563 78.5422 17.2131 77.0425 17.8403C75.5429 18.4674 73.6148 18.7755 71.2636 18.7755C68.35 18.7755 66.1434 18.1592 64.6438 16.932C63.1442 15.7048 62.5764 13.9965 62.9406 11.807L62.9781 11.5151C63.337 9.37964 64.4831 7.68753 66.4112 6.43871C68.3393 5.18989 70.7066 4.56819 73.5077 4.56819C76.2767 4.56819 78.344 5.17908 79.7098 6.40086C81.0755 7.62265 81.5789 9.26072 81.2308 11.3259L81.0273 12.3638L68.7303 12.3368L68.7089 12.5476ZM75.409 10.5041L68.8749 10.5582V10.542C68.8695 9.84998 69.5444 9.3364 70.1496 8.95256C70.7548 8.56873 71.5635 8.37951 72.5865 8.37951C73.8665 8.37951 74.6806 8.57414 75.0234 8.95797C75.3662 9.34181 75.484 10.1257 75.4412 10.5041H75.409Z" fill="#4350D6"/>
<path d="M83.9837 5.56292H90.1483L89.7359 7.93081H89.8001C90.2875 7.14692 91.0159 6.48736 91.9853 5.96297C92.9547 5.43857 93.8867 5.17368 94.7864 5.17368C95.2631 5.17368 95.6487 5.20611 95.9487 5.27098C96.2486 5.33586 96.4628 5.40074 96.6074 5.46561L95.7773 9.76348C95.5577 9.66076 95.306 9.57968 95.0114 9.52022C94.7168 9.46075 94.3526 9.43371 93.9188 9.43371C93.0137 9.43371 92.1085 9.66617 91.2034 10.1365C90.2982 10.6068 89.5966 11.1799 89.0985 11.8665L88.0702 18.9107H81.8039L83.9837 5.56292Z" fill="#4350D6"/>
<path d="M88.2363 32.6855C88.5897 30.5068 89.7037 28.8039 91.589 27.5767C93.4742 26.3495 95.8415 25.7386 98.6962 25.7386C101.374 25.7386 103.372 26.2306 104.684 27.2199C105.996 28.2092 106.585 29.5607 106.451 31.2745L106.425 31.6529H100.64L100.667 31.4637C100.71 30.8907 100.523 30.4419 100.115 30.1284C99.7084 29.8148 99.0175 29.6526 98.0428 29.6526C96.9395 29.6526 96.104 29.8905 95.5309 30.3663C94.9578 30.842 94.6204 31.5502 94.5026 32.4909L94.3794 33.264C94.2562 34.1992 94.4115 34.9074 94.8561 35.3778C95.3006 35.8481 96.0826 36.086 97.2019 36.086C98.1874 36.086 98.9211 35.94 99.3978 35.6427C99.8745 35.3453 100.158 34.9182 100.249 34.3614L100.314 34.183H106.077L106.002 34.5236C105.669 36.1616 104.663 37.4753 102.992 38.4593C101.321 39.4432 99.1193 39.9351 96.4039 39.9351C93.5439 39.9351 91.3694 39.3296 89.8805 38.1187C88.3916 36.9077 87.8292 35.194 88.1773 32.9828L88.2363 32.6855Z" fill="#4350D6"/>
<path fill-rule="evenodd" clip-rule="evenodd" d="M113.119 33.7722L113.109 33.8208C113.05 34.8371 113.382 35.0155 113.891 35.4805C114.4 35.9454 115.203 36.1779 116.301 36.1779C117.265 36.1779 118.047 36.0373 118.652 35.7616C119.257 35.4859 119.771 35.0966 120.189 34.5939L124.859 36.1887C124.088 37.4807 122.953 38.4376 121.453 39.0647C119.953 39.6919 118.025 40 115.674 40C112.761 40 110.554 39.3837 109.054 38.1565C107.555 36.9293 106.987 35.221 107.351 33.0315L107.389 32.7396C107.748 30.6041 108.894 28.912 110.822 27.6632C112.75 26.4144 115.117 25.7927 117.918 25.7927C120.687 25.7927 122.755 26.4036 124.12 27.6253C125.486 28.8471 125.99 30.4852 125.641 32.5504L125.438 33.5883L113.141 33.5613L113.119 33.7722ZM119.82 31.5718L113.285 31.6205V31.6043C113.28 30.9664 113.955 30.4852 114.56 30.1338C115.165 29.7824 115.974 29.604 116.997 29.604C118.277 29.604 119.091 29.7824 119.434 30.1392C119.777 30.496 119.895 31.2205 119.852 31.5718H119.82Z" fill="#4350D6"/>
<path d="M62.8282 20.9163H69.0034L65.7043 39.5675H59.529L62.8282 20.9163Z" fill="#4350D6"/>
<path fill-rule="evenodd" clip-rule="evenodd" d="M41.6512 21.0137H53.2734C55.8013 21.0137 57.6223 21.6029 58.7417 22.7815C59.861 23.96 60.2145 25.6791 59.8128 27.9335C59.4219 30.1068 58.4685 31.7989 56.9635 33.0207C55.4585 34.2425 53.3805 34.8371 50.7401 34.7993H45.5824L44.7897 39.5621H38.427L41.6512 21.0137ZM52.4378 30.1446C51.9237 30.6041 51.1417 30.8366 50.0866 30.8366V30.8312H46.3483L47.1998 25.1926H50.9382C51.9933 25.1926 52.711 25.4143 53.0966 25.8576C53.4822 26.3009 53.6001 27.0253 53.4501 28.02C53.2894 28.9769 52.952 29.6851 52.4378 30.1446Z" fill="#4350D6"/>
<path fill-rule="evenodd" clip-rule="evenodd" d="M70.4656 32.5449C71.7349 31.853 73.4863 31.5124 75.7304 31.5178L80.4274 31.5556L80.5506 30.2744C80.6149 29.8365 80.4756 29.4959 80.1222 29.258C79.7687 29.0201 79.1635 28.9012 78.3012 28.9012C77.4817 28.9012 76.8712 29.0364 76.4748 29.3121C76.0785 29.5878 75.8482 29.9662 75.7893 30.4582L75.7518 30.7123L70.1014 30.7014L70.1282 30.4744C70.3799 28.9553 71.3279 27.7876 72.9721 26.9766C74.6164 26.1657 76.748 25.7603 79.367 25.7603C82.1038 25.7603 84.0587 26.1549 85.237 26.9388C86.4153 27.7227 86.8598 28.939 86.576 30.5771L85.6226 36.9401C85.5369 37.4159 85.5155 37.87 85.5476 38.3079C85.5798 38.7458 85.6762 39.108 85.8368 39.3837L85.8101 39.5621H79.6991C79.608 39.3405 79.5437 39.081 79.5116 38.7728C79.4795 38.4647 79.4848 38.1187 79.5223 37.7294C79.0617 38.2376 78.2744 38.7025 77.155 39.1242C76.0357 39.5459 74.686 39.7567 73.106 39.7567C71.3493 39.7567 70.0371 39.4107 69.1748 38.7187C68.3125 38.0268 67.9912 37.0158 68.2108 35.6913C68.4464 34.2857 69.1963 33.2369 70.4656 32.5449ZM76.5123 36.7996C75.6822 36.7996 75.0984 36.6752 74.7663 36.4157C74.4289 36.1616 74.3004 35.7454 74.3807 35.1777C74.4343 34.702 74.686 34.3344 75.1252 34.0803C75.5643 33.8262 76.2231 33.6965 77.0908 33.6965L80.0525 33.7072L79.9776 34.6587C79.8597 35.3453 79.4688 35.8697 78.8046 36.2427C78.1405 36.6158 77.3746 36.7996 76.5123 36.7996Z" fill="#4350D6"/>
</g>
</g>
</svg>
