<svg width="127" height="42" viewBox="0 0 127 42" fill="none" xmlns="http://www.w3.org/2000/svg">
<g id="logo">
<path d="M1.2845 10.4013C1.85222 7.18463 3.30365 4.81133 5.63879 3.2868C7.97393 1.76227 10.8554 1 14.2885 1C17.6198 1 20.0299 1.57305 21.5188 2.72456C23.0078 3.87607 23.7362 5.68172 23.704 8.14691L23.6183 8.85512H17.2395L17.3252 8.09285C17.277 7.26571 16.9557 6.5521 16.3665 5.95202C15.7774 5.35194 14.824 5.0546 13.5119 5.0546C12.0658 5.0546 10.8714 5.51953 9.93417 6.44398C8.9969 7.36843 8.4024 8.48209 8.15068 9.78497L7.85075 11.396C7.57225 13.153 7.78113 14.4126 8.47203 15.1695C9.16293 15.9264 10.2448 16.3102 11.7177 16.3102C13.3512 16.3102 14.508 15.9966 15.1936 15.3749C15.8791 14.7532 16.313 14.018 16.5004 13.1854L16.7039 12.461H23.0667L22.8792 13.2449C22.3704 15.6452 21.1118 17.413 19.1034 18.5591C17.0949 19.7052 14.3849 20.2783 10.9678 20.2783C7.41157 20.2783 4.75508 19.4998 2.99837 17.9482C1.24165 16.3967 0.641796 14.018 1.20416 10.8121L1.2845 10.4013Z" stroke="#AFB4C0" stroke-miterlimit="10"/>
<path d="M22.199 22.3218C22.6007 22.4245 23.0345 22.511 23.5005 22.5813C23.9665 22.6516 24.3789 22.6894 24.7484 22.6894C25.675 22.6732 26.4355 22.6029 27.0246 22.484C27.6138 22.365 28.2297 21.8082 28.8617 20.8135L28.7492 19.9755L24.2557 6.55751H30.4042L32.3001 13.3314C32.3965 13.672 32.6215 14.3369 32.6215 14.3369L32.9696 14.3423L33.05 14.1856C33.05 14.1856 33.4677 13.472 33.6552 13.2287L37.7899 6.56292H43.4135L34.3514 20.8675C32.8679 22.9111 31.3682 24.3383 29.8472 25.1438C28.3261 25.9493 26.7194 26.3548 25.0376 26.3548C24.3949 26.3548 23.7629 26.3224 23.147 26.2575C22.5311 26.1926 21.9634 26.1007 21.4439 25.9709L22.199 22.3218Z" stroke="#AFB4C0" stroke-miterlimit="10"/>
<path fill-rule="evenodd" clip-rule="evenodd" d="M45.529 1.35681H51.6026L50.7188 6.11961H55.6409C58.1742 6.08718 59.9523 6.68185 60.9699 7.89824C61.9875 9.11462 62.3089 10.8121 61.9393 12.9854C61.5484 15.2398 60.6164 16.9589 59.1436 18.1375C57.6707 19.316 55.7319 19.9053 53.3164 19.9053H42.2245L45.529 1.35681ZM48.9621 15.7263L50.0869 10.0877H50.4258L53.6539 10.0823C54.6608 10.0823 55.3302 10.3094 55.6623 10.7743C55.9944 11.2392 56.0747 11.942 55.8979 12.8989C55.6998 13.899 55.3409 14.6181 54.8214 15.0614C54.3019 15.5047 53.5414 15.7263 52.5345 15.7263H48.9621Z" stroke="#AFB4C0" stroke-miterlimit="10"/>
<path fill-rule="evenodd" clip-rule="evenodd" d="M68.9608 13.5476L68.9501 13.5963C68.8912 14.6126 69.2233 14.7911 69.7321 15.256C70.2409 15.7209 71.0442 15.9534 72.1422 15.9534C73.1062 15.9534 73.8882 15.8128 74.4934 15.5371C75.0986 15.2614 75.6128 14.8721 76.0305 14.3694L80.7008 15.9642C79.9296 17.2562 78.7941 18.2131 77.2945 18.8403C75.7949 19.4674 73.8668 19.7755 71.5156 19.7755C68.602 19.7755 66.3954 19.1592 64.8957 17.932C63.3961 16.7048 62.8284 14.9965 63.1926 12.807L63.2301 12.5151C63.5889 10.3796 64.7351 8.68753 66.6632 7.43871C68.5913 6.18989 70.9586 5.56819 73.7597 5.56819C76.5286 5.56819 78.596 6.17908 79.9617 7.40086C81.3274 8.62265 81.8309 10.2607 81.4828 12.3259L81.2792 13.3638L68.9822 13.3368L68.9608 13.5476ZM75.661 11.5041L69.1269 11.5582V11.542C69.1215 10.85 69.7963 10.3364 70.4015 9.95256C71.0068 9.56873 71.8155 9.37951 72.8385 9.37951C74.1185 9.37951 74.9326 9.57414 75.2754 9.95797C75.6181 10.3418 75.736 11.1257 75.6931 11.5041H75.661Z" stroke="#AFB4C0" stroke-miterlimit="10"/>
<path d="M84.2357 6.56292H90.4002L89.9878 8.93081H90.0521C90.5395 8.14692 91.2679 7.48736 92.2373 6.96297C93.2067 6.43857 94.1386 6.17368 95.0384 6.17368C95.5151 6.17368 95.9007 6.20611 96.2006 6.27098C96.5005 6.33586 96.7148 6.40074 96.8594 6.46561L96.0292 10.7635C95.8096 10.6608 95.5579 10.5797 95.2633 10.5202C94.9688 10.4607 94.6046 10.4337 94.1707 10.4337C93.2656 10.4337 92.3605 10.6662 91.4553 11.1365C90.5502 11.6068 89.8486 12.1799 89.3505 12.8665L88.3222 19.9107H82.0558L84.2357 6.56292Z" stroke="#AFB4C0" stroke-miterlimit="10"/>
<path fill-rule="evenodd" clip-rule="evenodd" d="M113.371 34.7722L113.361 34.8208C113.302 35.8371 113.634 36.0155 114.143 36.4805C114.651 36.9454 115.455 37.1779 116.553 37.1779C117.517 37.1779 118.299 37.0373 118.904 36.7616C119.509 36.4859 120.023 36.0966 120.441 35.5939L125.111 37.1887C124.34 38.4807 123.205 39.4376 121.705 40.0647C120.205 40.6919 118.277 41 115.926 41C113.013 41 110.806 40.3837 109.306 39.1565C107.807 37.9293 107.239 36.221 107.603 34.0315L107.641 33.7396C108 31.6041 109.146 29.912 111.074 28.6632C113.002 27.4144 115.369 26.7927 118.17 26.7927C120.939 26.7927 123.007 27.4036 124.372 28.6253C125.738 29.8471 126.241 31.4852 125.893 33.5504L125.69 34.5883L113.393 34.5613L113.371 34.7722ZM120.072 32.5718L113.537 32.6205V32.6043C113.532 31.9664 114.207 31.4852 114.812 31.1338C115.417 30.7824 116.226 30.604 117.249 30.604C118.529 30.604 119.343 30.7824 119.686 31.1392C120.029 31.496 120.147 32.2205 120.104 32.5718H120.072Z" stroke="#AFB4C0" stroke-miterlimit="10"/>
<path d="M88.4882 33.6855C88.8417 31.5068 89.9557 29.8039 91.8409 28.5767C93.7262 27.3495 96.0935 26.7386 98.9482 26.7386C101.626 26.7386 103.624 27.2306 104.936 28.2199C106.248 29.2092 106.837 30.5607 106.703 32.2745L106.677 32.6529H100.892L100.919 32.4637C100.962 31.8907 100.774 31.4419 100.367 31.1284C99.9604 30.8148 99.2695 30.6526 98.2947 30.6526C97.1914 30.6526 96.3559 30.8905 95.7829 31.3663C95.2098 31.842 94.8724 32.5502 94.7545 33.4909L94.6313 34.264C94.5081 35.1992 94.6635 35.9074 95.108 36.3778C95.5525 36.8481 96.3345 37.086 97.4539 37.086C98.4393 37.086 99.1731 36.94 99.6498 36.6427C100.126 36.3453 100.41 35.9182 100.501 35.3614L100.566 35.183H106.328L106.254 35.5236C105.921 37.1616 104.915 38.4753 103.244 39.4593C101.573 40.4432 99.3713 40.9351 96.6559 40.9351C93.7958 40.9351 91.6214 40.3296 90.1324 39.1187C88.6435 37.9077 88.0812 36.194 88.4293 33.9828L88.4882 33.6855Z" stroke="#AFB4C0" stroke-miterlimit="10"/>
<path fill-rule="evenodd" clip-rule="evenodd" d="M70.7175 33.5449C71.9869 32.853 73.7382 32.5124 75.9823 32.5178L80.6794 32.5556L80.8026 31.2744C80.8669 30.8365 80.7276 30.4959 80.3741 30.258C80.0206 30.0201 79.4154 29.9012 78.5531 29.9012C77.7337 29.9012 77.1231 30.0364 76.7268 30.3121C76.3305 30.5878 76.1002 30.9662 76.0412 31.4582L76.0037 31.7123L70.3534 31.7014L70.3801 31.4744C70.6318 29.9553 71.5798 28.7876 73.2241 27.9766C74.8683 27.1657 76.9999 26.7603 79.6189 26.7603C82.3558 26.7603 84.3107 27.1549 85.4889 27.9388C86.6672 28.7227 87.1118 29.939 86.8279 31.5771L85.8746 37.9401C85.7889 38.4159 85.7674 38.87 85.7996 39.3079C85.8317 39.7458 85.9281 40.108 86.0888 40.3837L86.062 40.5621H79.951C79.86 40.3405 79.7957 40.081 79.7636 39.7728C79.7314 39.4647 79.7368 39.1187 79.7743 38.7294C79.3137 39.2376 78.5264 39.7025 77.407 40.1242C76.2876 40.5459 74.938 40.7567 73.358 40.7567C71.6013 40.7567 70.2891 40.4107 69.4268 39.7187C68.5645 39.0268 68.2431 38.0158 68.4627 36.6913C68.6984 35.2857 69.4482 34.2369 70.7175 33.5449ZM76.7643 37.7996C75.9341 37.7996 75.3503 37.6752 75.0183 37.4157C74.6809 37.1616 74.5523 36.7454 74.6327 36.1777C74.6862 35.702 74.9379 35.3344 75.3771 35.0803C75.8163 34.8262 76.4751 34.6965 77.3427 34.6965L80.3045 34.7072L80.2295 35.6587C80.1117 36.3453 79.7207 36.8697 79.0566 37.2427C78.3925 37.6158 77.6266 37.7996 76.7643 37.7996Z" stroke="#AFB4C0" stroke-miterlimit="10"/>
<path d="M63.0801 21.9163H69.2554L65.9562 40.5675H59.7809L63.0801 21.9163Z" stroke="#AFB4C0" stroke-miterlimit="10"/>
<path fill-rule="evenodd" clip-rule="evenodd" d="M41.9032 22.0137H53.5253C56.0533 22.0137 57.8743 22.6029 58.9936 23.7815C60.113 24.96 60.4665 26.6791 60.0648 28.9335C59.6738 31.1068 58.7205 32.7989 57.2155 34.0207C55.7105 35.2425 53.6324 35.8371 50.992 35.7993H45.8343L45.0417 40.5621H38.6789L41.9032 22.0137ZM52.6898 31.1446C52.1756 31.6041 51.3937 31.8366 50.3386 31.8366V31.8312H46.6002L47.4518 26.1926H51.1902C52.2453 26.1926 52.9629 26.4143 53.3486 26.8576C53.7342 27.3009 53.852 28.0253 53.7021 29.02C53.5414 29.9769 53.204 30.6851 52.6898 31.1446Z" stroke="#AFB4C0" stroke-miterlimit="10"/>
</g>
</svg>
