<svg width="239" height="56" viewBox="0 0 239 56" fill="none" xmlns="http://www.w3.org/2000/svg">
<path d="M42.6538 40.756C41.8644 40.756 41.1391 40.628 40.4778 40.372V36.276C40.5631 36.3187 40.6804 36.3507 40.8298 36.372C41.0004 36.3933 41.1391 36.404 41.2458 36.404C42.0564 36.404 42.7178 36.1373 43.2298 35.604C43.7631 35.0707 44.1684 34.2387 44.4458 33.108C44.7444 31.9773 44.9471 30.516 45.0538 28.724C45.1604 26.932 45.2138 24.7773 45.2138 22.26V17.652H61.6618V40.5H56.6698V21.876H49.9818C49.9178 24.5213 49.8218 26.996 49.6938 29.3C49.5871 31.604 49.3098 33.6093 48.8618 35.316C48.4138 37.0013 47.7098 38.3347 46.7498 39.316C45.7898 40.276 44.4244 40.756 42.6538 40.756ZM76.323 41.012C74.5523 41.012 72.9737 40.7133 71.587 40.116C70.2003 39.4973 69.027 38.6547 68.067 37.588C67.107 36.5213 66.371 35.2733 65.859 33.844C65.347 32.3933 65.091 30.836 65.091 29.172C65.091 27.4867 65.347 25.908 65.859 24.436C66.371 22.964 67.107 21.684 68.067 20.596C69.027 19.508 70.2003 18.6547 71.587 18.036C72.9737 17.4173 74.5523 17.108 76.323 17.108C78.0723 17.108 79.6403 17.4173 81.027 18.036C82.435 18.6547 83.619 19.508 84.579 20.596C85.539 21.684 86.275 22.964 86.787 24.436C87.299 25.908 87.555 27.4867 87.555 29.172C87.555 30.836 87.299 32.3933 86.787 33.844C86.275 35.2733 85.539 36.5213 84.579 37.588C83.619 38.6547 82.435 39.4973 81.027 40.116C79.6403 40.7133 78.0723 41.012 76.323 41.012ZM76.323 36.82C77.4537 36.82 78.4137 36.6067 79.203 36.18C79.9923 35.732 80.6323 35.1453 81.123 34.42C81.6137 33.6947 81.9657 32.884 82.179 31.988C82.4137 31.0707 82.531 30.132 82.531 29.172C82.531 28.1693 82.4137 27.1987 82.179 26.26C81.9657 25.3213 81.6137 24.4893 81.123 23.764C80.6323 23.0173 79.9923 22.4307 79.203 22.004C78.4137 21.556 77.4537 21.332 76.323 21.332C75.1923 21.332 74.2323 21.556 73.443 22.004C72.6537 22.4307 72.0137 23.0173 71.523 23.764C71.0323 24.4893 70.6697 25.3213 70.435 26.26C70.2217 27.1987 70.115 28.1693 70.115 29.172C70.115 30.132 70.2217 31.0707 70.435 31.988C70.6697 32.884 71.0323 33.6947 71.523 34.42C72.0137 35.1453 72.6537 35.732 73.443 36.18C74.2323 36.6067 75.1923 36.82 76.323 36.82ZM91.1493 17.652H107.021V21.876H96.1733V40.5H91.1493V17.652ZM119.604 41.012C117.834 41.012 116.255 40.7133 114.868 40.116C113.482 39.4973 112.308 38.6547 111.348 37.588C110.388 36.5213 109.652 35.2733 109.14 33.844C108.628 32.3933 108.372 30.836 108.372 29.172C108.372 27.4867 108.628 25.908 109.14 24.436C109.652 22.964 110.388 21.684 111.348 20.596C112.308 19.508 113.482 18.6547 114.868 18.036C116.255 17.4173 117.834 17.108 119.604 17.108C121.354 17.108 122.922 17.4173 124.308 18.036C125.716 18.6547 126.9 19.508 127.86 20.596C128.82 21.684 129.556 22.964 130.068 24.436C130.58 25.908 130.836 27.4867 130.836 29.172C130.836 30.836 130.58 32.3933 130.068 33.844C129.556 35.2733 128.82 36.5213 127.86 37.588C126.9 38.6547 125.716 39.4973 124.308 40.116C122.922 40.7133 121.354 41.012 119.604 41.012ZM119.604 36.82C120.735 36.82 121.695 36.6067 122.484 36.18C123.274 35.732 123.914 35.1453 124.404 34.42C124.895 33.6947 125.247 32.884 125.46 31.988C125.695 31.0707 125.812 30.132 125.812 29.172C125.812 28.1693 125.695 27.1987 125.46 26.26C125.247 25.3213 124.895 24.4893 124.404 23.764C123.914 23.0173 123.274 22.4307 122.484 22.004C121.695 21.556 120.735 21.332 119.604 21.332C118.474 21.332 117.514 21.556 116.724 22.004C115.935 22.4307 115.295 23.0173 114.804 23.764C114.314 24.4893 113.951 25.3213 113.716 26.26C113.503 27.1987 113.396 28.1693 113.396 29.172C113.396 30.132 113.503 31.0707 113.716 31.988C113.951 32.884 114.314 33.6947 114.804 34.42C115.295 35.1453 115.935 35.732 116.724 36.18C117.514 36.6067 118.474 36.82 119.604 36.82ZM139.327 21.876H132.479V17.652H151.199V21.876H144.351V40.5H139.327V21.876ZM153.833 17.652H158.825V33.492H158.921L167.625 17.652H173.257V40.5H168.265V24.628H168.169L159.465 40.5H153.833V17.652ZM177.677 17.652H196.685V40.5H191.661V21.876H182.701V40.5H177.677V17.652Z" fill="#222222"/>
</svg>
