<svg width="257" height="84" fill="none" xmlns="http://www.w3.org/2000/svg"><g stroke="#fff" stroke-width="3" stroke-miterlimit="10"><path d="M2.576 20.803c1.149-6.434 4.087-11.18 8.813-14.23C16.115 3.526 21.947 2 28.896 2c6.742 0 11.62 1.146 14.634 3.45 3.014 2.302 4.488 5.913 4.423 10.844l-.174 1.416H34.87l.173-1.524c-.097-1.655-.748-3.082-1.94-4.282-1.193-1.2-3.122-1.795-5.778-1.795-2.927 0-5.344.93-7.241 2.779-1.897 1.849-3.1 4.076-3.61 6.682l-.607 3.222c-.564 3.514-.141 6.033 1.257 7.547 1.399 1.514 3.588 2.281 6.57 2.281 3.306 0 5.647-.627 7.035-1.87 1.387-1.244 2.265-2.714 2.645-4.38l.412-1.448h12.878l-.38 1.568c-1.03 4.8-3.577 8.336-7.642 10.628s-9.55 3.438-16.466 3.438c-7.198 0-12.575-1.556-16.13-4.66-3.556-3.103-4.77-7.86-3.632-14.272l.163-.821zM44.907 44.644c.813.205 1.69.378 2.634.519.943.14 1.778.216 2.526.216 1.875-.033 3.414-.173 4.607-.411 1.192-.238 2.439-1.352 3.718-3.341l-.228-1.676-9.095-26.836h12.445l3.837 13.548c.196.681.65 2.01.65 2.01l.706.012.162-.314s.846-1.427 1.225-1.914l8.369-13.331h11.382l-18.342 28.61c-3.002 4.086-6.038 6.94-9.116 8.552-3.079 1.61-6.331 2.422-9.735 2.422-1.3 0-2.58-.065-3.826-.195-1.247-.13-2.396-.314-3.448-.573l1.529-7.298zM170.469 13.126h12.477l-.835 4.736h.13c.987-1.568 2.461-2.887 4.423-3.936 1.962-1.049 3.849-1.579 5.67-1.579.964 0 1.745.065 2.352.195.607.13 1.041.26 1.333.39l-1.68 8.595a6.873 6.873 0 0 0-1.55-.487c-.596-.118-1.333-.173-2.211-.173-1.832 0-3.664.465-5.496 1.406-1.832.94-3.252 2.087-4.261 3.46l-2.081 14.088h-12.683l4.412-26.695zM84.788 44.027h23.523c5.117 0 8.802 1.179 11.068 3.536s2.981 5.795 2.168 10.304c-.791 4.347-2.721 7.73-5.767 10.174-3.046 2.444-7.252 3.633-12.596 3.558h-10.44l-1.604 9.525H78.262l6.526-37.097zm17.073 19.646c2.136 0 3.718-.465 4.759-1.384 1.041-.919 1.724-2.335 2.049-4.249.303-1.99.065-3.438-.715-4.325-.781-.887-2.234-1.33-4.369-1.33h-7.567l-1.723 11.277h7.566v.011zM92.127 2.714h12.293l-1.789 9.525h9.962c5.128-.065 8.726 1.125 10.786 3.557 2.06 2.433 2.71 5.828 1.962 10.175-.791 4.509-2.677 7.947-5.658 10.304-2.981 2.357-6.906 3.536-11.795 3.536h-22.45l6.689-37.097zm9.225 17.461-2.277 11.278h7.231c2.038 0 3.577-.444 4.629-1.33 1.051-.887 1.777-2.325 2.178-4.325.358-1.914.196-3.32-.477-4.25-.672-.93-2.027-1.383-4.065-1.383l-6.533.01h-.686zM127.65 43.833h12.499l-6.678 37.302h-12.498l6.677-37.302zM143.108 67.09c2.569-1.384 6.114-2.065 10.656-2.055l9.507.076.249-2.562c.131-.876-.151-1.557-.867-2.033-.715-.476-1.94-.714-3.685-.714-1.659 0-2.895.27-3.697.822-.802.552-1.268 1.308-1.388 2.292l-.075.509-11.437-.022.054-.454c.51-3.038 2.429-5.374 5.757-6.996 3.327-1.622 7.642-2.433 12.943-2.433 5.539 0 9.496.79 11.881 2.358 2.384 1.567 3.284 4 2.71 7.276l-1.93 12.726c-.173.952-.217 1.86-.152 2.736.065.876.261 1.6.586 2.151l-.054.357h-12.369a5.632 5.632 0 0 1-.38-1.578c-.065-.617-.054-1.309.022-2.087-.932 1.016-2.526 1.946-4.791 2.79-2.266.843-4.998 1.264-8.195 1.264-3.556 0-6.212-.692-7.957-2.076-1.745-1.383-2.396-3.405-1.951-6.054.477-2.811 1.994-4.91 4.563-6.293zm8.705 7.742c.672.518 1.854.767 3.534.767 1.745 0 3.295-.368 4.64-1.114 1.344-.746 2.135-1.794 2.374-3.168l.151-1.902-5.994-.022c-1.756 0-3.09.26-3.979.767-.889.509-1.398 1.244-1.506 2.196-.163 1.135.097 1.967.78 2.476zM179.076 67.371c.716-4.357 2.97-7.763 6.786-10.218 3.816-2.454 8.607-3.676 14.385-3.676 5.42 0 9.464.984 12.119 2.963 2.656 1.978 3.849 4.681 3.578 8.109l-.055.757h-11.707l.054-.379c.087-1.146-.292-2.043-1.116-2.67-.824-.627-2.223-.952-4.195-.952-2.234 0-3.925.476-5.084 1.428-1.16.951-1.843 2.367-2.082 4.249l-.249 1.546c-.25 1.87.065 3.287.965 4.227.899.941 2.482 1.417 4.748 1.417 1.994 0 3.479-.292 4.444-.887.965-.594 1.539-1.448 1.724-2.562l.13-.357h11.664l-.152.681c-.672 3.276-2.71 5.904-6.092 7.871-3.382 1.968-7.838 2.952-13.334 2.952-5.788 0-10.189-1.21-13.203-3.633-3.014-2.422-4.152-5.85-3.447-10.271l.119-.595zM139.889 23.116l13.225-.108h.065c.087-.757-.152-2.324-.846-3.092-.693-.768-2.341-1.157-4.932-1.157-2.07 0-3.707.378-4.932 1.146-1.225.768-2.591 1.795-2.58 3.179v.032zm-.336 3.98-.022.097c-.119 2.032.553 2.39 1.583 3.319 1.03.93 2.656 1.395 4.878 1.395 1.951 0 3.534-.281 4.759-.833a8.649 8.649 0 0 0 3.111-2.335l9.452 3.19c-1.561 2.584-3.859 4.497-6.894 5.752-3.035 1.254-6.938 1.87-11.696 1.87-5.898 0-10.364-1.233-13.399-3.687-3.035-2.454-4.184-5.871-3.447-10.25l.076-.584c.726-4.27 3.046-7.655 6.948-10.153 3.903-2.497 8.694-3.74 14.364-3.74 5.604 0 9.788 1.221 12.553 3.665 2.764 2.443 3.783 5.72 3.078 9.85l-.412 2.076-24.889-.054-.043.421zM229.776 65.241l13.225-.097h.065c.087-.703-.152-2.152-.846-2.866-.693-.713-2.341-1.07-4.932-1.07-2.07 0-3.707.357-4.932 1.06-1.225.702-2.591 1.665-2.58 2.94v.033zm-.336 4.303-.022.098c-.119 2.032.553 2.39 1.583 3.319 1.03.93 2.656 1.395 4.878 1.395 1.951 0 3.534-.281 4.759-.833a8.649 8.649 0 0 0 3.111-2.335l9.452 3.19c-1.561 2.584-3.859 4.497-6.894 5.751-3.035 1.255-6.938 1.871-11.696 1.871-5.898 0-10.364-1.233-13.399-3.687-3.035-2.454-4.184-5.871-3.447-10.25l.076-.584c.726-4.27 3.046-7.655 6.948-10.153 3.903-2.497 8.694-3.74 14.364-3.74 5.604 0 9.788 1.221 12.553 3.665 2.764 2.443 3.783 5.72 3.078 9.85l-.412 2.076-24.889-.054-.043.421z"/></g></svg>