<svg width="38" height="38" fill="none" xmlns="http://www.w3.org/2000/svg"><g clip-path="url(#a)"><path fill-rule="evenodd" clip-rule="evenodd" d="M19 8.212a9.896 9.896 0 1 0 0 19.791 9.896 9.896 0 0 0 0-19.791zM6.73 18.108a12.27 12.27 0 1 1 23.79 4.238l3.622 3.75c.407.422.745.774.999 1.067.25.288.507.617.657 1 .529 1.338.105 2.922-1.17 3.7-.364.226-.782.318-1.14.378-.367.063-.833.11-1.382.17l-.038.002c-.727.078-.865.102-.958.138a1.082 1.082 0 0 0-.629.66c-.041.111-.065.274-.14 1.02l-.002.035c-.057.571-.105 1.051-.163 1.428-.057.364-.143.782-.353 1.148-.745 1.301-2.31 1.789-3.67 1.214-.38-.161-.705-.432-.98-.688-.286-.263-.623-.615-1.03-1.038l-.032-.031-5.11-5.382-5.118 5.391-.024.024c-.407.423-.745.774-1.029 1.037-.277.257-.601.527-.982.689-1.361.575-2.926.087-3.67-1.215-.209-.365-.296-.782-.353-1.15a27.077 27.077 0 0 1-.161-1.424l-.005-.036c-.073-.746-.098-.908-.138-1.02a1.082 1.082 0 0 0-.628-.66c-.095-.037-.233-.06-.96-.138l-.036-.003c-.55-.059-1.015-.108-1.383-.17-.357-.058-.775-.152-1.141-.377-1.273-.779-1.697-2.362-1.17-3.7.152-.383.407-.712.657-1 .253-.293.592-.645 1-1.068l3.622-3.749a12.247 12.247 0 0 1-.752-4.24zm1.865 6.506-3.002 3.108c-.437.453-.732.757-.938.996a1.916 1.916 0 0 0-.243.316c-.143.365 0 .672.188.797.014.005.095.032.307.068.285.047.681.09 1.276.153l.119.013c.538.056 1.015.106 1.44.27a3.455 3.455 0 0 1 2.015 2.077c.152.426.2.907.253 1.467l.013.12c.06.615.101 1.027.149 1.33.04.256.072.338.074.343.127.214.386.318.673.198 0 0 .08-.043.294-.244.23-.212.523-.515.959-.966l.003-.003 4.306-4.538a12.282 12.282 0 0 1-7.886-5.505zM21.52 30.12a12.285 12.285 0 0 0 7.888-5.507l3.002 3.108c.437.453.73.757.935.996.195.221.24.308.244.316.143.365 0 .672-.187.797-.016.005-.095.032-.307.068-.286.047-.68.09-1.277.153l-.12.013c-.536.056-1.014.106-1.44.27a3.46 3.46 0 0 0-2.014 2.077c-.152.426-.2.907-.253 1.467l-.013.12c-.06.615-.102 1.027-.149 1.33-.04.256-.073.338-.073.343-.127.214-.388.32-.676.198h.003s-.079-.043-.296-.244a26.925 26.925 0 0 1-.958-.966l-.003-.003-4.306-4.536zm-2.518-15.126c-.093.16-.196.344-.317.56l-.155.28a7.803 7.803 0 0 0-.035.063c-.125.227-.33.604-.674.866-.35.266-.773.357-1.018.411l-.068.014-.303.069c-.278.063-.503.114-.696.163.125.153.288.346.5.595l.206.24.047.055c.171.197.448.514.575.926.127.405.082.823.055 1.086l-.008.074-.031.322a35.54 35.54 0 0 0-.065.728c.165-.073.351-.158.575-.261l.283-.13.063-.032c.228-.106.624-.291 1.064-.291.442 0 .836.185 1.064.293l.064.03.285.13c.221.103.408.19.575.261a57.26 57.26 0 0 0-.067-.728l-.032-.322a6.255 6.255 0 0 0-.008-.074c-.026-.265-.07-.68.056-1.086.127-.412.403-.729.575-.926l.047-.054.206-.241c.212-.249.375-.442.502-.595-.193-.048-.42-.1-.697-.163l-.302-.069-.068-.015c-.247-.053-.668-.144-1.02-.412-.344-.26-.55-.637-.673-.863l-.036-.065-.155-.278c-.12-.217-.222-.401-.316-.561h.002zm-1.564-1.954c.272-.356.768-.87 1.56-.87.796 0 1.291.514 1.563.87.26.339.523.81.792 1.292l.035.065.157.28.088.159.157.036.301.068.076.016c.52.119 1.034.234 1.43.391.438.173 1.029.507 1.258 1.243.225.72-.058 1.332-.305 1.726-.23.364-.576.77-.934 1.186l-.048.055-.206.242-.13.154.02.214.031.321.007.073c.055.557.107 1.096.087 1.526-.02.453-.127 1.137-.741 1.601-.634.481-1.33.377-1.774.249-.408-.116-.89-.34-1.377-.562l-.068-.032-.284-.132a40.23 40.23 0 0 0-.134-.061l-.135.063-.282.13-.07.032c-.485.223-.968.446-1.377.562-.443.126-1.14.232-1.773-.249-.613-.464-.72-1.148-.741-1.6-.02-.431.031-.97.087-1.527l.008-.073.032-.321.019-.214a13.648 13.648 0 0 0-.132-.154l-.206-.242-.047-.055c-.357-.417-.705-.824-.934-1.188-.247-.392-.53-1.004-.306-1.726.23-.733.822-1.068 1.259-1.24.396-.158.912-.273 1.431-.39l.073-.016.302-.07.159-.036.088-.159.155-.28.037-.065c.27-.483.53-.953.792-1.292z" fill="#222"/></g><defs><clipPath id="a"><path fill="#fff" d="M0 0h38v38H0z"/></clipPath></defs></svg>