<svg width="24" height="16" viewBox="0 0 24 16" fill="none" xmlns="http://www.w3.org/2000/svg">
<path d="M23.2006 7.76635C23.1681 7.69135 22.3749 5.91731 20.6035 4.13077C18.9598 2.475 16.1359 0.5 12 0.5C7.86414 0.5 5.04017 2.475 3.3965 4.13077C1.62508 5.91731 0.831853 7.68846 0.799438 7.76635C0.766843 7.84019 0.75 7.92013 0.75 8.00096C0.75 8.0818 0.766843 8.16173 0.799438 8.23558C0.831853 8.30962 1.62508 10.0837 3.3965 11.8702C5.04017 13.526 7.86414 15.5 12 15.5C16.1359 15.5 18.9598 13.526 20.6035 11.8702C22.3749 10.0837 23.1681 8.3125 23.2006 8.23558C23.2332 8.16173 23.25 8.0818 23.25 8.00096C23.25 7.92013 23.2332 7.84019 23.2006 7.76635ZM12 14.3462C9.00823 14.3462 6.39591 13.2481 4.23454 11.0837C3.3285 10.1755 2.5618 9.13621 1.95973 8C2.56163 6.86397 3.32835 5.82495 4.23454 4.91731C6.39591 2.75192 9.00823 1.65385 12 1.65385C14.9918 1.65385 17.6041 2.75192 19.7655 4.91731C20.6716 5.82495 21.4384 6.86397 22.0403 8C21.433 9.17404 18.3878 14.3462 12 14.3462ZM12 3.57692C11.1326 3.57692 10.2847 3.83633 9.56347 4.32235C8.84225 4.80836 8.28013 5.49915 7.94819 6.30736C7.61625 7.11557 7.5294 8.00491 7.69862 8.8629C7.86784 9.72089 8.28554 10.509 8.89888 11.1276C9.51222 11.7462 10.2937 12.1674 11.1444 12.3381C11.9951 12.5088 12.8769 12.4212 13.6783 12.0864C14.4797 11.7516 15.1646 11.1847 15.6465 10.4573C16.1284 9.72996 16.3856 8.8748 16.3856 8C16.3841 6.8274 15.9216 5.70326 15.0995 4.8741C14.2773 4.04494 13.1627 3.57845 12 3.57692ZM12 11.2692C11.3589 11.2692 10.7322 11.0775 10.1991 10.7183C9.66601 10.359 9.25053 9.84845 9.00519 9.25108C8.75984 8.65371 8.69564 7.99637 8.82072 7.3622C8.9458 6.72804 9.25453 6.14551 9.70787 5.6883C10.1612 5.23109 10.7388 4.91973 11.3676 4.79359C11.9964 4.66744 12.6482 4.73218 13.2405 4.97962C13.8328 5.22707 14.3391 5.64609 14.6953 6.18371C15.0515 6.72133 15.2416 7.35341 15.2416 8C15.2416 8.86705 14.9 9.6986 14.2921 10.3117C13.6842 10.9248 12.8597 11.2692 12 11.2692Z" fill="#272A31"/>
</svg>
