<svg width="23" height="26" viewBox="0 0 23 26" fill="none" xmlns="http://www.w3.org/2000/svg">
<path d="M11.568 0.866278C11.5253 0.844574 11.4747 0.844574 11.432 0.866278L0.932041 6.20246C0.881706 6.22804 0.85 6.27972 0.85 6.33618V19.6766C0.85 19.7332 0.881765 19.7849 0.932171 19.8104L11.4322 25.1338C11.4748 25.1554 11.5252 25.1554 11.5678 25.1338L22.0678 19.8104C22.1182 19.7849 22.15 19.7332 22.15 19.6766V6.33618C22.15 6.27972 22.1183 6.22804 22.068 6.20246L11.568 0.866278ZM8.78869 4.38745L11.4999 3.0153L19.0558 6.84911L16.2962 8.24583L8.78869 4.38745ZM6.65338 5.47835L14.1727 9.33658L11.5002 10.6833L3.94422 6.84945L6.65338 5.47835ZM2.76538 18.5584V8.42781L10.5423 12.3801V22.5107L2.76538 18.5584ZM20.2346 18.5584L12.4577 22.5107V12.3801L20.2346 8.42781V18.5584Z" fill="#272A31" stroke="#272A31" stroke-width="0.3" stroke-linejoin="round"/>
</svg>
