<svg width="24" height="24" viewBox="0 0 24 24" fill="none" xmlns="http://www.w3.org/2000/svg">
<path d="M15.6794 14.587C19.1694 14.587 21.9994 11.769 21.9994 8.293C21.9994 4.818 19.1694 2 15.6794 2C12.1894 2 9.36245 4.818 9.36245 8.293C9.36245 9.903 10.0964 11.074 10.0964 11.074L2.45445 18.684C2.11145 19.026 1.63145 19.914 2.45445 20.734L3.33645 21.612C3.67945 21.905 4.54145 22.315 5.24645 21.612L6.27645 20.588C7.30445 21.612 8.48045 21.027 8.92145 20.441C9.65545 19.417 8.77445 18.392 8.77445 18.392L9.06845 18.099C10.4784 19.505 11.7134 18.685 12.1544 18.099C12.8894 17.075 12.1544 16.05 12.1544 16.05C11.8604 15.465 11.2724 15.465 12.0074 14.733L12.8894 13.855C13.5944 14.44 15.0444 14.587 15.6814 14.587H15.6794Z" stroke="#AFB4C0" stroke-width="1.5" stroke-linejoin="round"/>
<path d="M17.8846 8.29403C17.8832 8.87733 17.6503 9.43623 17.237 9.84784C16.8237 10.2595 16.2639 10.4901 15.6806 10.489C15.0973 10.4901 14.5374 10.2595 14.1241 9.84784C13.7108 9.43623 13.4779 8.87733 13.4766 8.29403C13.4771 8.00512 13.5345 7.71914 13.6456 7.45243C13.7566 7.18571 13.9191 6.94348 14.1238 6.73956C14.3284 6.53564 14.5712 6.37403 14.8384 6.26396C15.1055 6.15388 15.3917 6.0975 15.6806 6.09803C15.9695 6.0975 16.2557 6.15388 16.5228 6.26396C16.7899 6.37403 17.0327 6.53564 17.2374 6.73956C17.442 6.94348 17.6045 7.18571 17.7156 7.45243C17.8266 7.71914 17.884 8.00512 17.8846 8.29403Z" stroke="#AFB4C0" stroke-width="1.5"/>
</svg>
