<svg width="16" height="15" viewBox="0 0 16 15" fill="none" xmlns="http://www.w3.org/2000/svg">
<path fill-rule="evenodd" clip-rule="evenodd" d="M8.00031 8.91415L13.6573 14.5711C13.8459 14.7533 14.0985 14.8541 14.3607 14.8518C14.6229 14.8495 14.8737 14.7444 15.0591 14.559C15.2445 14.3736 15.3497 14.1227 15.352 13.8606C15.3543 13.5984 15.2535 13.3458 15.0713 13.1571L9.41431 7.50015L15.0713 1.84315C15.2535 1.65455 15.3543 1.40194 15.352 1.13975C15.3497 0.877551 15.2445 0.626739 15.0591 0.441331C14.8737 0.255923 14.6229 0.150754 14.3607 0.148475C14.0985 0.146197 13.8459 0.246991 13.6573 0.429149L8.00031 6.08615L2.34331 0.429149C2.15386 0.251494 1.90272 0.154515 1.64304 0.158732C1.38336 0.162948 1.1355 0.268031 0.951921 0.451743C0.768338 0.635456 0.663431 0.883385 0.659398 1.14307C0.655365 1.40276 0.752522 1.65382 0.930311 1.84315L6.58631 7.50015L0.929311 13.1571C0.833801 13.2494 0.757619 13.3597 0.70521 13.4817C0.652801 13.6037 0.625215 13.735 0.624061 13.8677C0.622907 14.0005 0.648209 14.1322 0.69849 14.2551C0.748771 14.378 0.823024 14.4897 0.916916 14.5835C1.01081 14.6774 1.12246 14.7517 1.24536 14.802C1.36825 14.8523 1.49993 14.8776 1.63271 14.8764C1.76549 14.8752 1.89671 14.8477 2.01872 14.7953C2.14072 14.7428 2.25106 14.6667 2.34331 14.5711L8.00031 8.91415Z" fill="#272A31"/>
</svg>
