<svg width="24" height="25" viewBox="0 0 24 25" fill="none" xmlns="http://www.w3.org/2000/svg">
<g id="Group">
<path id="Vector" fill-rule="evenodd" clip-rule="evenodd" d="M12.0003 13.9141L17.6573 19.5711C17.8459 19.7533 18.0985 19.8541 18.3607 19.8518C18.6229 19.8495 18.8737 19.7444 19.0591 19.559C19.2445 19.3736 19.3497 19.1227 19.352 18.8606C19.3543 18.5984 19.2535 18.3458 19.0713 18.1571L13.4143 12.5001L19.0713 6.84315C19.2535 6.65455 19.3543 6.40194 19.352 6.13975C19.3497 5.87755 19.2445 5.62674 19.0591 5.44133C18.8737 5.25592 18.6229 5.15075 18.3607 5.14848C18.0985 5.1462 17.8459 5.24699 17.6573 5.42915L12.0003 11.0861L6.34331 5.42915C6.15386 5.25149 5.90272 5.15451 5.64304 5.15873C5.38336 5.16295 5.1355 5.26803 4.95192 5.45174C4.76834 5.63546 4.66343 5.88339 4.6594 6.14307C4.65537 6.40276 4.75252 6.65382 4.93031 6.84315L10.5863 12.5001L4.92931 18.1571C4.8338 18.2494 4.75762 18.3597 4.70521 18.4817C4.6528 18.6037 4.62522 18.735 4.62406 18.8677C4.62291 19.0005 4.64821 19.1322 4.69849 19.2551C4.74877 19.378 4.82302 19.4897 4.91692 19.5835C5.01081 19.6774 5.12246 19.7517 5.24536 19.802C5.36825 19.8523 5.49993 19.8776 5.63271 19.8764C5.76549 19.8752 5.89671 19.8477 6.01872 19.7953C6.14072 19.7428 6.25106 19.6667 6.34331 19.5711L12.0003 13.9141Z" fill="#272A31"/>
</g>
</svg>
