<svg width="24" height="24" viewBox="0 0 24 24" fill="none" xmlns="http://www.w3.org/2000/svg">
<path fill-rule="evenodd" clip-rule="evenodd" d="M16.6839 9.11419C16.6839 10.2233 16.2434 11.2869 15.4591 12.0712C14.6749 12.8554 13.6112 13.296 12.5021 13.296C11.393 13.296 10.3294 12.8554 9.54514 12.0712C8.7609 11.2869 8.32031 10.2233 8.32031 9.11419C8.32031 8.0051 8.7609 6.94144 9.54514 6.1572C10.3294 5.37296 11.393 4.93237 12.5021 4.93237C13.6112 4.93237 14.6749 5.37296 15.4591 6.1572C16.2434 6.94144 16.6839 8.0051 16.6839 9.11419ZM14.593 9.11419C14.593 9.66874 14.3727 10.2006 13.9806 10.5927C13.5885 10.9848 13.0567 11.2051 12.5021 11.2051C11.9476 11.2051 11.4158 10.9848 11.0236 10.5927C10.6315 10.2006 10.4112 9.66874 10.4112 9.11419C10.4112 8.55965 10.6315 8.02782 11.0236 7.6357C11.4158 7.24357 11.9476 7.02328 12.5021 7.02328C13.0567 7.02328 13.5885 7.24357 13.9806 7.6357C14.3727 8.02782 14.593 8.55965 14.593 9.11419Z" fill="#272A31"/>
<path fill-rule="evenodd" clip-rule="evenodd" d="M12.5 0.75C6.14886 0.75 1 5.89886 1 12.25C1 18.6011 6.14886 23.75 12.5 23.75C18.8511 23.75 24 18.6011 24 12.25C24 5.89886 18.8511 0.75 12.5 0.75ZM3.09091 12.25C3.09091 14.435 3.83632 16.4465 5.08564 18.0439C5.96301 16.8917 7.0949 15.958 8.39286 15.3156C9.69083 14.6732 11.1197 14.3397 12.568 14.3409C13.9974 14.3396 15.4084 14.6645 16.6932 15.291C17.9781 15.9175 19.1031 16.829 19.9823 17.9561C20.8881 16.768 21.4981 15.3814 21.7616 13.9108C22.0251 12.4402 21.9346 10.9281 21.4977 9.49939C21.0608 8.07073 20.2899 6.76664 19.2489 5.69504C18.2079 4.62344 16.9267 3.81513 15.5113 3.33699C14.0959 2.85885 12.587 2.72462 11.1094 2.94543C9.63182 3.16623 8.22805 3.7357 7.01426 4.60674C5.80046 5.47777 4.81153 6.62532 4.12928 7.95443C3.44704 9.28354 3.0911 10.756 3.09091 12.25ZM12.5 21.6591C10.34 21.6623 8.24528 20.9193 6.57018 19.5556C7.24443 18.5904 8.14185 17.8023 9.18611 17.2584C10.2304 16.7146 11.3906 16.431 12.568 16.4318C13.7307 16.4309 14.8768 16.7074 15.9112 17.2383C16.9457 17.7692 17.8385 18.5393 18.5155 19.4845C16.8274 20.8925 14.6982 21.6622 12.5 21.6591Z" fill="#272A31"/>
</svg>
