<svg width="25" height="24" viewBox="0 0 25 24" fill="none" xmlns="http://www.w3.org/2000/svg">
<g clip-path="url(#clip0_1429_3904)">
<path fill-rule="evenodd" clip-rule="evenodd" d="M17.432 9.11425C17.432 10.2233 16.9914 11.287 16.2072 12.0712C15.4229 12.8555 14.3593 13.2961 13.2502 13.2961C12.1411 13.2961 11.0774 12.8555 10.2932 12.0712C9.50894 11.287 9.06836 10.2233 9.06836 9.11425C9.06836 8.00517 9.50894 6.9415 10.2932 6.15726C11.0774 5.37302 12.1411 4.93243 13.2502 4.93243C14.3593 4.93243 15.4229 5.37302 16.2072 6.15726C16.9914 6.9415 17.432 8.00517 17.432 9.11425ZM15.3411 9.11425C15.3411 9.6688 15.1208 10.2006 14.7287 10.5927C14.3366 10.9849 13.8047 11.2052 13.2502 11.2052C12.6956 11.2052 12.1638 10.9849 11.7717 10.5927C11.3796 10.2006 11.1593 9.6688 11.1593 9.11425C11.1593 8.55971 11.3796 8.02788 11.7717 7.63576C12.1638 7.24363 12.6956 7.02334 13.2502 7.02334C13.8047 7.02334 14.3366 7.24363 14.7287 7.63576C15.1208 8.02788 15.3411 8.55971 15.3411 9.11425Z" fill="white"/>
<path fill-rule="evenodd" clip-rule="evenodd" d="M13.248 0.75C6.89691 0.75 1.74805 5.89886 1.74805 12.25C1.74805 18.6011 6.89691 23.75 13.248 23.75C19.5992 23.75 24.748 18.6011 24.748 12.25C24.748 5.89886 19.5992 0.75 13.248 0.75ZM3.83896 12.25C3.83896 14.435 4.58436 16.4465 5.83368 18.0439C6.71106 16.8917 7.84294 15.958 9.14091 15.3156C10.4389 14.6732 11.8678 14.3397 13.316 14.3409C14.7455 14.3396 16.1564 14.6645 17.4413 15.291C18.7262 15.9175 19.8511 16.829 20.7304 17.9561C21.6362 16.768 22.2461 15.3814 22.5096 13.9108C22.7731 12.4402 22.6827 10.9281 22.2457 9.49939C21.8088 8.07073 21.038 6.76664 19.997 5.69504C18.956 4.62344 17.6748 3.81513 16.2594 3.33699C14.8439 2.85885 13.335 2.72462 11.8574 2.94543C10.3799 3.16623 8.9761 3.7357 7.76231 4.60674C6.54851 5.47777 5.55958 6.62532 4.87733 7.95443C4.19509 9.28354 3.83914 10.756 3.83896 12.25ZM13.248 21.6591C11.0881 21.6623 8.99332 20.9193 7.31823 19.5556C7.99247 18.5904 8.8899 17.8023 9.93416 17.2584C10.9784 16.7146 12.1386 16.431 13.316 16.4318C14.4787 16.4309 15.6249 16.7074 16.6593 17.2383C17.6937 17.7692 18.5865 18.5393 19.2636 19.4845C17.5755 20.8925 15.4462 21.6622 13.248 21.6591Z" fill="white"/>
</g>
<defs>
<clipPath id="clip0_1429_3904">
<rect width="24" height="24" fill="white" transform="translate(0.748047)"/>
</clipPath>
</defs>
</svg>
