<svg width="38" height="38" fill="none" xmlns="http://www.w3.org/2000/svg"><path d="M19 3.167C10.245 3.167 3.167 10.245 3.167 19c0 8.756 7.078 15.834 15.833 15.834A15.833 15.833 0 0 0 34.834 19c0-8.755-7.125-15.833-15.834-15.833zm0 28.5a12.667 12.667 0 1 1 0-25.333 12.667 12.667 0 0 1 0 25.333zm1.584-15.928 1.678 1.678 1.678-1.678 1.679 1.678 1.678-1.678-3.357-3.357-3.356 3.357zm-6.524 0 1.679 1.678 1.678-1.678-3.357-3.357-3.356 3.357 1.678 1.678 1.678-1.678zM19 27.709c3.69 0 6.825-2.312 8.091-5.542H10.91c1.266 3.23 4.401 5.542 8.09 5.542z" fill="#222"/></svg>