<svg width="32" height="32" viewBox="0 0 32 32" fill="none" xmlns="http://www.w3.org/2000/svg">
<g id="Group">
<path id="Vector" fill-rule="evenodd" clip-rule="evenodd" d="M15.9991 17.8853L23.5418 25.428C23.7932 25.6709 24.1301 25.8053 24.4796 25.8022C24.8292 25.7992 25.1637 25.659 25.4109 25.4118C25.6581 25.1645 25.7983 24.8301 25.8013 24.4805C25.8044 24.1309 25.67 23.7941 25.4271 23.5427L17.8844 16L25.4271 8.45733C25.67 8.20586 25.8044 7.86906 25.8013 7.51946C25.7983 7.16987 25.6581 6.83545 25.4109 6.58824C25.1637 6.34103 24.8292 6.2008 24.4796 6.19777C24.1301 6.19473 23.7932 6.32912 23.5418 6.572L15.9991 14.1147L8.45645 6.572C8.20385 6.33512 7.869 6.20582 7.52275 6.21144C7.17651 6.21706 6.84604 6.35717 6.60126 6.60212C6.35648 6.84707 6.21661 7.17765 6.21123 7.52389C6.20585 7.87014 6.33539 8.2049 6.57245 8.45733L14.1138 16L6.57111 23.5427C6.44377 23.6657 6.34219 23.8128 6.27231 23.9755C6.20243 24.1381 6.16565 24.3131 6.16411 24.4901C6.16257 24.6672 6.19631 24.8427 6.26335 25.0066C6.33039 25.1705 6.4294 25.3193 6.55459 25.4445C6.67978 25.5697 6.82865 25.6687 6.99251 25.7358C7.15637 25.8028 7.33194 25.8365 7.50898 25.835C7.68602 25.8335 7.86098 25.7967 8.02365 25.7268C8.18632 25.6569 8.33345 25.5553 8.45645 25.428L15.9991 17.8853Z" fill="#272A31"/>
</g>
</svg>
