<svg width="9" height="8" viewBox="0 0 9 8" fill="none" xmlns="http://www.w3.org/2000/svg">
<g id="plus" clip-path="url(#clip0_1507_2646)">
<path id="Vector" d="M4.5 0C4.63261 0 4.75979 0.0526785 4.85355 0.146447C4.94732 0.240215 5 0.367392 5 0.5V3.5H8C8.13261 3.5 8.25979 3.55268 8.35355 3.64645C8.44732 3.74021 8.5 3.86739 8.5 4C8.5 4.13261 8.44732 4.25979 8.35355 4.35355C8.25979 4.44732 8.13261 4.5 8 4.5H5V7.5C5 7.63261 4.94732 7.75979 4.85355 7.85355C4.75979 7.94732 4.63261 8 4.5 8C4.36739 8 4.24021 7.94732 4.14645 7.85355C4.05268 7.75979 4 7.63261 4 7.5V4.5H1C0.867392 4.5 0.740215 4.44732 0.646447 4.35355C0.552679 4.25979 0.5 4.13261 0.5 4C0.5 3.86739 0.552679 3.74021 0.646447 3.64645C0.740215 3.55268 0.867392 3.5 1 3.5H4V0.5C4 0.367392 4.05268 0.240215 4.14645 0.146447C4.24021 0.0526785 4.36739 0 4.5 0Z" fill="#272A31"/>
</g>
<defs>
<clipPath id="clip0_1507_2646">
<rect width="8" height="8" fill="white" transform="translate(0.5)"/>
</clipPath>
</defs>
</svg>
