<svg width="32" height="32" viewBox="0 0 32 32" fill="none" xmlns="http://www.w3.org/2000/svg">
<g clip-path="url(#clip0_168_195)">
<path d="M2.28571 14.8567H16V16.8885H2.28571V14.8567ZM0 9.77734H11.4286V11.8091H0V9.77734Z" fill="#222222"/>
<path d="M31.908 16.4419L28.4967 8.52346C28.4092 8.31993 28.2635 8.14646 28.0777 8.0246C27.8919 7.90273 27.6743 7.83783 27.4517 7.83795H24.0404V5.57554C24.0404 5.27553 23.9206 4.9878 23.7074 4.77566C23.4941 4.56352 23.2049 4.44434 22.9033 4.44434H4.7098V6.70674H21.7662V20.9101C21.2481 21.2094 20.7947 21.6078 20.432 22.0823C20.0694 22.5568 19.8048 23.0981 19.6535 23.6748H12.508C12.2312 22.6085 11.573 21.6791 10.6568 21.061C9.74055 20.4429 8.62916 20.1785 7.53093 20.3173C6.43271 20.456 5.42306 20.9885 4.69124 21.8148C3.95942 22.6412 3.55566 23.7047 3.55566 24.806C3.55566 25.9073 3.95942 26.9708 4.69124 27.7972C5.42306 28.6235 6.43271 29.156 7.53093 29.2948C8.62916 29.4335 9.74055 29.1691 10.6568 28.551C11.573 27.9329 12.2312 27.0035 12.508 25.9372H19.6535C19.9009 26.908 20.4666 27.7691 21.2611 28.3842C22.0557 28.9993 23.0337 29.3332 24.0404 29.3332C25.0472 29.3332 26.0252 28.9993 26.8198 28.3842C27.6143 27.7691 28.18 26.908 28.4274 25.9372H30.863C31.1646 25.9372 31.4538 25.818 31.6671 25.6059C31.8803 25.3937 32.0001 25.106 32.0001 24.806V16.8876C32.0002 16.7343 31.9688 16.5827 31.908 16.4419ZM8.12109 27.0684C7.67129 27.0684 7.2316 26.9357 6.85761 26.6871C6.48362 26.4385 6.19213 26.0852 6.02001 25.6718C5.84788 25.2584 5.80284 24.8035 5.89059 24.3646C5.97834 23.9258 6.19494 23.5226 6.51299 23.2062C6.83104 22.8898 7.23626 22.6744 7.67741 22.5871C8.11856 22.4998 8.57583 22.5446 8.99138 22.7158C9.40694 22.887 9.76212 23.177 10.012 23.5491C10.2619 23.9211 10.3953 24.3585 10.3953 24.806C10.3947 25.4058 10.1549 25.981 9.72852 26.4051C9.30216 26.8293 8.72406 27.0678 8.12109 27.0684ZM24.0404 10.1004H26.7012L29.1392 15.7564H24.0404V10.1004ZM24.0404 27.0684C23.5906 27.0684 23.1509 26.9357 22.777 26.6871C22.403 26.4385 22.1115 26.0852 21.9394 25.6718C21.7672 25.2584 21.7222 24.8035 21.8099 24.3646C21.8977 23.9258 22.1143 23.5226 22.4323 23.2062C22.7504 22.8898 23.1556 22.6744 23.5968 22.5871C24.0379 22.4998 24.4952 22.5446 24.9107 22.7158C25.3263 22.887 25.6815 23.177 25.9314 23.5491C26.1812 23.9211 26.3146 24.3585 26.3146 24.806C26.314 25.4058 26.0742 25.981 25.6479 26.4051C25.2215 26.8293 24.6434 27.0678 24.0404 27.0684ZM29.7259 23.6748H28.4274C28.1769 22.7058 27.6103 21.847 26.8164 21.2328C26.0224 20.6187 25.0461 20.284 24.0404 20.2812V18.0188H29.7259V23.6748Z" fill="#222222"/>
</g>
<defs>
<clipPath id="clip0_168_195">
<rect width="32" height="32" fill="white"/>
</clipPath>
</defs>
</svg>
